<svg xmlns="http://www.w3.org/2000/svg" xmlns:xlink="http://www.w3.org/1999/xlink" width="500" zoomAndPan="magnify" viewBox="0 0 375 374.999991" height="500" preserveAspectRatio="xMidYMid meet" version="1.0"><defs><clipPath id="22eb101f9f"><path d="M 234 57 L 336.75 57 L 336.75 235 L 234 235 Z M 234 57 " clip-rule="nonzero"/></clipPath></defs><rect x="-37.5" width="450" fill="#ffffff" y="-37.499999" height="449.999989" fill-opacity="1"/><rect x="-37.5" width="450" fill="#ffffff" y="-37.499999" height="449.999989" fill-opacity="1"/><rect x="-37.5" width="450" fill="#ffffff" y="-37.499999" height="449.999989" fill-opacity="1"/><path fill="#46e9f6" d="M 149.160156 108.269531 C 164.742188 106.09375 167.460938 100.351562 163.660156 86.914062 L 152.066406 45.242188 C 147.902344 30.511719 141.882812 23.773438 127.316406 27.402344 C 104.039062 33.199219 80.210938 39.316406 68.28125 56.414062 C 37.546875 100.46875 123.085938 327.492188 145.226562 342.003906 C 159.429688 351.320312 197.214844 344.039062 223.609375 333.800781 C 236.648438 328.746094 241.566406 324.28125 237.765625 310.839844 L 223.773438 261.417969 C 219.429688 246.078125 210.792969 245.054688 201.414062 248.894531 C 191.195312 253.078125 174.285156 269.453125 165.277344 263.078125 C 149.300781 251.773438 101.402344 150.371094 119.792969 117.882812 C 125.535156 107.742188 141.46875 109.34375 149.160156 108.269531 " fill-opacity="1" fill-rule="nonzero"/><path fill="#d3d2d2" d="M 261.699219 227.433594 C 259.339844 227.433594 257.007812 226.351562 255.5 224.304688 C 252.976562 220.890625 253.707031 216.078125 257.125 213.554688 C 273.234375 201.6875 282.847656 182.6875 282.847656 162.722656 C 282.847656 128.585938 256.117188 100.878906 221.996094 99.648438 C 217.746094 99.492188 214.425781 95.929688 214.582031 91.683594 C 214.734375 87.441406 218.289062 84.070312 222.550781 84.28125 C 264.996094 85.8125 298.242188 120.269531 298.242188 162.722656 C 298.242188 187.546875 286.285156 211.175781 266.261719 225.933594 C 264.886719 226.941406 263.289062 227.433594 261.699219 227.433594 " fill-opacity="1" fill-rule="nonzero"/><path fill="#d3d2d2" d="M 229.015625 210.117188 C 226.65625 210.117188 224.320312 209.035156 222.8125 206.988281 C 220.292969 203.574219 221.019531 198.757812 224.441406 196.234375 C 234.160156 189.074219 239.96875 177.605469 239.96875 165.558594 C 239.96875 144.953125 223.835938 128.230469 203.242188 127.492188 C 198.992188 127.335938 195.671875 123.773438 195.828125 119.527344 C 195.980469 115.289062 199.515625 111.925781 203.792969 112.125 C 232.707031 113.167969 255.359375 136.640625 255.359375 165.558594 C 255.359375 182.46875 247.214844 198.5625 233.574219 208.613281 C 232.203125 209.625 230.597656 210.117188 229.015625 210.117188 " fill-opacity="1" fill-rule="nonzero"/><g clip-path="url(#22eb101f9f)"><path fill="#d3d2d2" d="M 292.554688 234.746094 C 290.195312 234.746094 287.863281 233.664062 286.355469 231.621094 C 283.832031 228.203125 284.5625 223.394531 287.980469 220.871094 C 308.914062 205.449219 321.402344 180.761719 321.402344 154.820312 C 321.402344 110.457031 286.671875 74.453125 242.324219 72.851562 C 238.074219 72.699219 234.757812 69.136719 234.90625 64.890625 C 235.0625 60.648438 238.609375 57.289062 242.878906 57.484375 C 268.167969 58.398438 291.792969 68.929688 309.410156 87.132812 C 327.070312 105.386719 336.796875 129.421875 336.796875 154.820312 C 336.796875 185.621094 321.964844 214.941406 297.117188 233.25 C 295.738281 234.261719 294.140625 234.746094 292.554688 234.746094 " fill-opacity="1" fill-rule="nonzero"/></g></svg>