<svg xmlns="http://www.w3.org/2000/svg" xmlns:xlink="http://www.w3.org/1999/xlink" width="500" zoomAndPan="magnify" viewBox="0 0 375 374.999991" height="500" preserveAspectRatio="xMidYMid meet" version="1.0"><rect x="-37.5" width="450" fill="#ffffff" y="-37.499999" height="449.999989" fill-opacity="1"/><rect x="-37.5" width="450" fill="#ffffff" y="-37.499999" height="449.999989" fill-opacity="1"/><rect x="-37.5" width="450" fill="#ffffff" y="-37.499999" height="449.999989" fill-opacity="1"/><path fill="#ebe563" d="M 17.253906 121.632812 C 17.253906 121.632812 156.902344 34.464844 174.359375 30.980469 C 191.816406 27.492188 191.816406 27.492188 198.796875 30.980469 C 205.777344 34.464844 348.921875 121.632812 348.921875 121.632812 L 183.085938 264.582031 Z M 17.253906 121.632812 " fill-opacity="1" fill-rule="nonzero"/><path fill="#ffffff" d="M 293.0625 264.582031 C 293.0625 266.507812 291.5 268.066406 289.570312 268.066406 L 78.367188 268.066406 C 76.441406 268.066406 74.878906 266.507812 74.878906 264.582031 L 74.878906 93.246094 C 74.878906 91.320312 76.441406 89.757812 78.367188 89.757812 L 289.570312 89.757812 C 291.5 89.757812 293.0625 91.320312 293.0625 93.246094 Z M 293.0625 264.582031 " fill-opacity="1" fill-rule="nonzero"/><path fill="#46e9f6" d="M 112.691406 130.636719 L 255.25 130.636719 L 255.25 135.867188 L 112.691406 135.867188 Z M 112.691406 130.636719 " fill-opacity="1" fill-rule="nonzero"/><path fill="#46e9f6" d="M 112.691406 150.976562 L 255.25 150.976562 L 255.25 156.207031 L 112.691406 156.207031 Z M 112.691406 150.976562 " fill-opacity="1" fill-rule="nonzero"/><path fill="#46e9f6" d="M 112.691406 171.316406 L 255.25 171.316406 L 255.25 176.542969 L 112.691406 176.542969 Z M 112.691406 171.316406 " fill-opacity="1" fill-rule="nonzero"/><path fill="#fffa80" d="M 17.253906 121.632812 C 17.253906 121.632812 0.671875 291.859375 21.621094 312.78125 C 42.566406 333.699219 325.355469 337.1875 344.558594 312.78125 C 363.757812 288.375 361.140625 133.835938 348.921875 121.632812 C 348.921875 121.632812 195.308594 207.410156 177.851562 217.207031 Z M 17.253906 121.632812 " fill-opacity="1" fill-rule="nonzero"/></svg>