<svg xmlns="http://www.w3.org/2000/svg" xmlns:xlink="http://www.w3.org/1999/xlink" width="500" zoomAndPan="magnify" viewBox="0 0 375 374.999991" height="500" preserveAspectRatio="xMidYMid meet" version="1.0"><defs><clipPath id="a59a897e24"><path d="M 59.222656 63.65625 L 315.722656 63.65625 L 315.722656 311 L 59.222656 311 Z M 59.222656 63.65625 " clip-rule="nonzero"/></clipPath></defs><path fill="#ffffff" d="M 159.070312 68.148438 C 159.070312 68.148438 148.292969 69.285156 142.050781 73.707031 C 135.808594 78.128906 113.796875 101.832031 112.65625 103.757812 C 111.523438 105.683594 112.757812 214.101562 112.757812 214.101562 C 112.757812 214.101562 112.980469 226.355469 114.121094 228.050781 C 115.261719 229.746094 129.777344 251.957031 135.023438 254.925781 C 140.265625 257.894531 209.890625 257.371094 209.890625 257.371094 C 209.890625 257.371094 238.464844 257.363281 241.199219 255.75 C 243.933594 254.140625 261.351562 228.964844 262.828125 224.371094 C 264.300781 219.777344 262.882812 107.167969 262.542969 104.21875 C 262.203125 101.269531 232.351562 72.914062 226.566406 70.535156 C 220.78125 68.160156 159.070312 68.148438 159.070312 68.148438 Z M 159.070312 68.148438 " fill-opacity="1" fill-rule="evenodd"/><path fill="#7fd3ff" d="M 127.167969 198.390625 C 129.59375 197.425781 132.050781 195.582031 134.625 194.027344 C 135.199219 200.730469 143.585938 204.121094 148.613281 199.101562 L 148.628906 199.101562 C 149.515625 198.21875 150.191406 197.128906 150.601562 195.90625 C 152.0625 199.402344 153.875 201.832031 155.78125 203.375 C 147.753906 213.679688 131.269531 210.9375 127.167969 198.390625 Z M 242.433594 194.429688 L 242.378906 194.792969 C 242.398438 194.933594 242.421875 195.09375 242.449219 195.269531 L 242.71875 195.179688 Z M 242.320312 195.074219 C 241.507812 198.824219 238.160156 201.503906 234.300781 201.503906 C 229.640625 201.503906 226.023438 197.699219 226.085938 193.195312 L 223.953125 195.714844 C 222.476562 196.855469 220.78125 198.171875 218.980469 199.285156 C 223.679688 211.269531 239.726562 213.378906 247.421875 203.1875 C 243.824219 201.78125 242.789062 197.460938 242.449219 195.269531 L 242.339844 195.300781 Z M 178.308594 119.65625 L 129.0625 119.65625 L 129.0625 169.78125 L 178.308594 169.78125 Z M 245.945312 119.65625 L 197.144531 119.65625 L 197.144531 169.554688 L 245.945312 169.554688 Z M 126.058594 230.449219 L 249.203125 230.449219 C 259.027344 230.449219 267.09375 222.382812 267.09375 212.566406 L 267.09375 202.015625 C 264.335938 201.785156 261.621094 201.921875 258.859375 201.902344 L 258.859375 212.566406 C 258.859375 217.894531 254.527344 222.222656 249.203125 222.222656 L 126.058594 222.222656 C 120.726562 222.222656 116.398438 217.890625 116.398438 212.566406 L 116.398438 206.980469 C 113.742188 207.105469 110.800781 207.1875 108.167969 206.75 L 108.167969 212.566406 C 108.160156 222.386719 116.234375 230.449219 126.058594 230.449219 Z M 116.394531 190.066406 L 116.394531 114.945312 C 113.578125 118.453125 110.601562 122.054688 108.160156 125.496094 L 108.160156 190.507812 C 110.640625 190.074219 113.488281 190.007812 116.394531 190.066406 Z M 135.023438 254.933594 C 132.640625 252.320312 126.058594 247.214844 126.058594 247.214844 L 66.144531 304.601562 C 66.144531 304.601562 118.621094 306.957031 118.457031 306.074219 C 118.289062 305.191406 144.328125 257.195312 144.328125 257.195312 C 144.328125 257.195312 137.402344 257.542969 135.023438 254.933594 Z M 250.167969 248.042969 C 250.167969 248.042969 243.585938 253.148438 241.207031 255.757812 C 238.824219 258.367188 231.898438 258.027344 231.898438 258.027344 C 231.898438 258.027344 257.9375 306.023438 257.773438 306.90625 C 257.605469 307.789062 310.085938 305.433594 310.085938 305.433594 Z M 250.167969 248.042969 " fill-opacity="1" fill-rule="evenodd"/><path fill="#1995ed" d="M 256.664062 306.421875 L 116.636719 308.238281 L 144.324219 257.203125 L 229.429688 257.425781 Z M 250.199219 235.097656 L 124.320312 235.097656 L 124.320312 244.460938 L 250.199219 244.460938 Z M 250.199219 235.097656 " fill-opacity="1" fill-rule="evenodd"/><path fill="#ffffff" d="M 162.839844 120.5625 L 148.683594 169.785156 L 134.496094 169.785156 L 148.65625 120.5625 Z M 215.34375 119.992188 L 201.183594 169.21875 L 215.371094 169.21875 L 229.53125 119.992188 Z M 151.371094 169.78125 L 158.464844 169.78125 L 172.621094 120.554688 L 165.53125 120.554688 Z M 232.21875 119.992188 L 218.058594 169.21875 L 225.152344 169.21875 L 239.3125 119.992188 Z M 232.21875 119.992188 " fill-opacity="0.549" fill-rule="evenodd"/><g clip-path="url(#a59a897e24)"><path fill="#0a57a2" d="M 315.332031 308.363281 C 315.382812 308.25 315.421875 308.128906 315.460938 308.007812 C 315.460938 308 315.46875 307.988281 315.46875 307.980469 C 315.507812 307.859375 315.539062 307.738281 315.5625 307.617188 C 315.5625 307.609375 315.570312 307.597656 315.570312 307.589844 C 315.597656 307.464844 315.613281 307.328125 315.628906 307.195312 C 315.628906 307.195312 315.628906 307.195312 315.628906 307.1875 C 315.75 305.980469 315.339844 304.726562 314.390625 303.816406 L 254.007812 245.4375 L 262.625 231.742188 C 265.398438 228.585938 267.085938 224.464844 267.085938 219.976562 L 267.085938 111.433594 C 267.085938 108.015625 267.027344 105.625 266.191406 103.085938 C 265.339844 100.507812 263.808594 98.246094 260.921875 95.355469 L 242.621094 77.015625 C 239.003906 73.386719 234.25 70.097656 229.503906 67.726562 C 224.59375 65.269531 219.570312 63.738281 215.625 63.738281 L 159.628906 63.738281 C 155.683594 63.738281 150.660156 65.269531 145.738281 67.730469 C 140.992188 70.105469 136.238281 73.394531 132.621094 77.019531 L 114.328125 95.363281 C 111.445312 98.253906 109.914062 100.507812 109.058594 103.089844 C 108.21875 105.625 108.160156 108.023438 108.160156 111.441406 L 108.160156 219.996094 C 108.160156 224.589844 109.929688 228.804688 112.828125 231.996094 L 121.265625 245.433594 L 61.203125 303.496094 C 60.855469 303.773438 60.554688 304.097656 60.320312 304.46875 C 59.25 306.035156 59.382812 308.199219 60.753906 309.617188 C 61.757812 310.667969 63.191406 311.058594 64.519531 310.796875 L 116.546875 310.816406 C 117.027344 310.898438 117.515625 310.898438 117.988281 310.816406 L 257.625 310.859375 C 257.882812 310.886719 258.136719 310.886719 258.394531 310.859375 L 311.53125 310.878906 C 312.621094 310.886719 313.707031 310.46875 314.515625 309.625 C 314.871094 309.253906 315.140625 308.832031 315.328125 308.382812 C 315.332031 308.378906 315.332031 308.371094 315.332031 308.363281 Z M 301.410156 302.675781 L 260.390625 302.664062 L 236.699219 260.894531 C 238.863281 260.613281 241.1875 259.75 243.304688 258.476562 C 245.765625 257 248.050781 254.925781 249.523438 252.578125 L 249.546875 252.539062 Z M 130.066406 244.054688 C 130.007812 243.953125 129.945312 243.859375 129.882812 243.753906 L 126.1875 237.871094 L 249.085938 237.871094 L 245.339844 243.824219 C 245.308594 243.871094 245.285156 243.914062 245.257812 243.960938 L 242.582031 248.207031 C 241.808594 249.441406 240.519531 250.582031 239.101562 251.4375 C 237.722656 252.265625 236.308594 252.777344 235.226562 252.777344 L 140.039062 252.777344 C 138.957031 252.777344 137.542969 252.265625 136.160156 251.4375 C 134.726562 250.582031 133.445312 249.441406 132.683594 248.226562 Z M 147.933594 261.011719 L 227.328125 261.011719 L 229.785156 265.347656 L 145.507812 265.277344 Z M 140.867188 273.464844 L 234.441406 273.542969 L 239.90625 283.175781 L 135.398438 283.105469 Z M 130.753906 291.296875 L 244.554688 291.371094 L 250.957031 302.660156 L 124.332031 302.621094 Z M 116.394531 111.433594 C 116.394531 108.804688 116.425781 107 116.867188 105.65625 C 117.296875 104.359375 118.242188 103.039062 120.136719 101.140625 L 138.441406 82.796875 C 141.4375 79.789062 145.417969 77.046875 149.40625 75.058594 C 153.21875 73.148438 156.933594 71.964844 159.628906 71.964844 L 215.625 71.964844 C 218.320312 71.964844 222.039062 73.148438 225.851562 75.058594 C 229.835938 77.050781 233.8125 79.796875 236.816406 82.796875 L 255.117188 101.140625 C 257.011719 103.039062 257.957031 104.359375 258.386719 105.65625 C 258.828125 107 258.859375 108.804688 258.859375 111.433594 L 258.859375 219.988281 C 258.859375 222.648438 257.78125 225.066406 256.039062 226.808594 L 256.019531 226.828125 C 254.277344 228.566406 251.863281 229.648438 249.195312 229.648438 L 126.058594 229.648438 C 123.398438 229.648438 120.976562 228.566406 119.234375 226.828125 L 119.21875 226.808594 C 117.476562 225.066406 116.394531 222.65625 116.394531 219.988281 Z M 125.738281 252.566406 C 127.226562 254.933594 129.496094 257.003906 131.949219 258.476562 C 134.066406 259.75 136.398438 260.613281 138.5625 260.894531 L 114.902344 302.613281 L 73.933594 302.601562 L 125.726562 252.53125 Z M 129.554688 174.980469 L 178.878906 174.980469 C 181.148438 174.980469 182.992188 173.136719 182.992188 170.867188 L 182.992188 120.058594 C 182.992188 117.785156 181.148438 115.945312 178.878906 115.945312 L 129.554688 115.945312 C 127.28125 115.945312 125.4375 117.785156 125.4375 120.058594 L 125.4375 170.867188 C 125.4375 173.136719 127.28125 174.980469 129.554688 174.980469 Z M 133.671875 124.171875 L 174.761719 124.171875 L 174.761719 166.753906 L 133.671875 166.753906 Z M 196.382812 174.980469 L 245.707031 174.980469 C 247.980469 174.980469 249.824219 173.136719 249.824219 170.867188 L 249.824219 120.058594 C 249.824219 117.785156 247.980469 115.945312 245.707031 115.945312 L 196.382812 115.945312 C 194.113281 115.945312 192.269531 117.785156 192.269531 120.058594 L 192.269531 170.867188 C 192.269531 173.136719 194.113281 174.980469 196.382812 174.980469 Z M 200.5 124.171875 L 241.589844 124.171875 L 241.589844 166.753906 L 200.5 166.753906 Z M 211.570312 207.15625 C 211.570312 209.425781 209.726562 211.269531 207.453125 211.269531 L 167.808594 211.269531 C 165.535156 211.269531 163.691406 209.425781 163.691406 207.15625 C 163.691406 204.882812 165.535156 203.042969 167.808594 203.042969 L 207.453125 203.042969 C 209.726562 203.042969 211.570312 204.882812 211.570312 207.15625 Z M 130.253906 211.75 C 133.230469 214.722656 137.339844 216.566406 141.878906 216.566406 C 146.414062 216.566406 150.53125 214.722656 153.496094 211.742188 C 156.480469 208.761719 158.324219 204.652344 158.324219 200.128906 C 158.324219 195.734375 156.582031 191.738281 153.746094 188.773438 L 153.503906 188.511719 C 150.527344 185.539062 146.414062 183.695312 141.878906 183.695312 C 137.339844 183.695312 133.222656 185.539062 130.257812 188.519531 C 127.277344 191.5 125.433594 195.605469 125.433594 200.128906 C 125.433594 204.523438 127.171875 208.523438 130.007812 211.484375 Z M 136.058594 194.320312 L 136.078125 194.320312 C 137.5625 192.835938 139.617188 191.914062 141.882812 191.914062 C 144.148438 191.914062 146.203125 192.835938 147.691406 194.320312 L 147.875 194.492188 C 149.25 195.953125 150.097656 197.9375 150.097656 200.125 C 150.097656 202.402344 149.179688 204.453125 147.710938 205.925781 L 147.691406 205.925781 C 146.203125 207.410156 144.148438 208.332031 141.882812 208.332031 C 139.617188 208.332031 137.5625 207.410156 136.078125 205.925781 L 135.890625 205.753906 C 134.515625 204.296875 133.671875 202.3125 133.671875 200.125 C 133.671875 197.847656 134.578125 195.792969 136.058594 194.320312 Z M 233.378906 183.6875 C 228.839844 183.6875 224.722656 185.53125 221.753906 188.503906 L 221.507812 188.769531 C 218.675781 191.730469 216.933594 195.730469 216.933594 200.125 C 216.933594 204.648438 218.777344 208.753906 221.753906 211.742188 C 224.730469 214.714844 228.839844 216.558594 233.378906 216.558594 C 237.917969 216.558594 242.03125 214.714844 245.003906 211.742188 L 245.246094 211.480469 C 248.082031 208.515625 249.824219 204.519531 249.824219 200.125 C 249.824219 195.601562 247.980469 191.492188 245.003906 188.503906 C 242.027344 185.53125 237.917969 183.6875 233.378906 183.6875 Z M 239.371094 205.753906 L 239.183594 205.925781 C 237.699219 207.410156 235.644531 208.332031 233.378906 208.332031 C 231.113281 208.332031 229.058594 207.410156 227.570312 205.925781 L 227.550781 205.925781 C 226.082031 204.453125 225.164062 202.402344 225.164062 200.125 C 225.164062 197.9375 226.007812 195.953125 227.386719 194.492188 L 227.570312 194.320312 C 229.058594 192.835938 231.113281 191.914062 233.378906 191.914062 C 235.644531 191.914062 237.699219 192.835938 239.183594 194.320312 L 239.203125 194.320312 C 240.675781 195.792969 241.589844 197.847656 241.589844 200.125 C 241.589844 202.316406 240.746094 204.296875 239.371094 205.753906 Z M 162.886719 98.375 C 165.023438 100.507812 167.96875 101.824219 171.203125 101.824219 C 174.441406 101.824219 177.386719 100.507812 179.53125 98.363281 L 179.550781 98.34375 C 181.679688 96.207031 183 93.265625 183 90.035156 C 183 86.796875 181.679688 83.851562 179.535156 81.710938 L 179.515625 81.691406 C 177.378906 79.5625 174.433594 78.242188 171.203125 78.242188 C 167.960938 78.242188 165.019531 79.5625 162.878906 81.699219 L 162.859375 81.714844 C 160.730469 83.859375 159.410156 86.800781 159.410156 90.027344 C 159.410156 93.265625 160.730469 96.207031 162.875 98.351562 Z M 168.660156 87.519531 L 168.679688 87.5 C 169.3125 86.867188 170.203125 86.476562 171.203125 86.476562 C 172.199219 86.476562 173.089844 86.875 173.722656 87.5 L 173.742188 87.519531 C 174.375 88.152344 174.765625 89.042969 174.765625 90.039062 C 174.765625 91.039062 174.371094 91.925781 173.742188 92.558594 L 173.722656 92.578125 C 173.089844 93.214844 172.199219 93.601562 171.203125 93.601562 C 170.203125 93.601562 169.3125 93.207031 168.679688 92.578125 L 168.660156 92.558594 C 168.027344 91.925781 167.636719 91.039062 167.636719 90.039062 C 167.636719 89.042969 168.03125 88.152344 168.660156 87.519531 Z M 195.738281 98.371094 C 197.875 100.507812 200.828125 101.824219 204.058594 101.824219 C 207.292969 101.824219 210.230469 100.507812 212.382812 98.371094 L 212.402344 98.351562 C 214.539062 96.214844 215.855469 93.265625 215.855469 90.035156 C 215.855469 86.800781 214.539062 83.867188 212.402344 81.714844 L 212.382812 81.699219 C 210.242188 79.5625 207.292969 78.242188 204.058594 78.242188 C 200.828125 78.242188 197.890625 79.5625 195.738281 81.699219 L 195.71875 81.714844 C 193.582031 83.851562 192.261719 86.800781 192.261719 90.035156 C 192.261719 93.265625 193.582031 96.199219 195.71875 98.351562 Z M 201.523438 87.519531 L 201.542969 87.5 C 202.175781 86.867188 203.066406 86.476562 204.066406 86.476562 C 205.066406 86.476562 205.953125 86.875 206.589844 87.5 L 206.605469 87.519531 C 207.242188 88.152344 207.632812 89.042969 207.632812 90.039062 C 207.632812 91.039062 207.234375 91.925781 206.605469 92.558594 L 206.589844 92.578125 C 205.953125 93.214844 205.066406 93.601562 204.066406 93.601562 C 203.066406 93.601562 202.175781 93.207031 201.542969 92.578125 L 201.523438 92.558594 C 200.890625 91.925781 200.5 91.039062 200.5 90.039062 C 200.5 89.042969 200.898438 88.152344 201.523438 87.519531 Z M 201.523438 87.519531 " fill-opacity="1" fill-rule="nonzero"/></g></svg>