<svg xmlns="http://www.w3.org/2000/svg" xmlns:xlink="http://www.w3.org/1999/xlink" width="500" zoomAndPan="magnify" viewBox="0 0 375 374.999991" height="500" preserveAspectRatio="xMidYMid meet" version="1.0"><defs><clipPath id="c98b2e4756"><path d="M 13.070312 19.09375 L 361.816406 19.09375 L 361.816406 355.84375 L 13.070312 355.84375 Z M 13.070312 19.09375 " clip-rule="nonzero"/></clipPath></defs><path fill="#ffffff" d="M 148.824219 25.207031 C 148.824219 25.207031 134.167969 26.753906 125.683594 32.769531 C 117.199219 38.785156 87.265625 71.035156 85.714844 73.65625 C 84.175781 76.277344 85.855469 223.792969 85.855469 223.792969 C 85.855469 223.792969 86.160156 240.464844 87.710938 242.769531 C 89.257812 245.078125 109 275.300781 116.125 279.335938 C 123.253906 283.375 217.921875 282.664062 217.921875 282.664062 C 217.921875 282.664062 256.777344 282.65625 260.492188 280.460938 C 264.207031 278.265625 287.890625 244.015625 289.902344 237.765625 C 291.902344 231.515625 289.972656 78.296875 289.507812 74.28125 C 289.046875 70.269531 248.464844 31.691406 240.597656 28.453125 C 232.726562 25.222656 148.824219 25.207031 148.824219 25.207031 Z M 148.824219 25.207031 " fill-opacity="1" fill-rule="evenodd"/><path fill="#7fd3ff" d="M 105.449219 202.414062 C 108.746094 201.101562 112.089844 198.59375 115.585938 196.476562 C 116.371094 205.601562 127.773438 210.214844 134.605469 203.382812 L 134.628906 203.382812 C 135.832031 202.179688 136.753906 200.699219 137.3125 199.039062 C 139.296875 203.789062 141.757812 207.097656 144.351562 209.195312 C 133.4375 223.21875 111.027344 219.484375 105.449219 202.414062 Z M 262.171875 197.027344 L 262.09375 197.523438 C 262.121094 197.714844 262.15625 197.933594 262.1875 198.167969 L 262.554688 198.046875 Z M 262.015625 197.90625 C 260.910156 203.007812 256.359375 206.652344 251.109375 206.652344 C 244.773438 206.652344 239.855469 201.476562 239.941406 195.347656 L 237.042969 198.777344 C 235.035156 200.324219 232.726562 202.117188 230.28125 203.632812 C 236.671875 219.9375 258.488281 222.808594 268.953125 208.945312 C 264.058594 207.027344 262.652344 201.152344 262.1875 198.167969 L 262.042969 198.210938 Z M 174.980469 95.285156 L 108.023438 95.285156 L 108.023438 163.488281 L 174.980469 163.488281 Z M 266.941406 95.285156 L 200.59375 95.285156 L 200.59375 163.183594 L 266.941406 163.183594 Z M 103.941406 246.035156 L 271.371094 246.035156 C 284.730469 246.035156 295.699219 235.058594 295.699219 221.703125 L 295.699219 207.351562 C 291.945312 207.039062 288.257812 207.21875 284.503906 207.195312 L 284.503906 221.703125 C 284.503906 228.957031 278.613281 234.839844 271.371094 234.839844 L 103.941406 234.839844 C 96.691406 234.839844 90.808594 228.945312 90.808594 221.703125 L 90.808594 214.105469 C 87.195312 214.269531 83.191406 214.382812 79.617188 213.792969 L 79.617188 221.703125 C 79.605469 235.066406 90.582031 246.035156 103.941406 246.035156 Z M 90.800781 191.089844 L 90.800781 88.878906 C 86.96875 93.652344 82.921875 98.550781 79.605469 103.234375 L 79.605469 191.691406 C 82.976562 191.097656 86.847656 191.011719 90.800781 191.089844 Z M 116.125 279.347656 C 112.890625 275.796875 103.941406 268.847656 103.941406 268.847656 L 22.476562 346.929688 C 22.476562 346.929688 93.828125 350.132812 93.601562 348.929688 C 93.375 347.730469 128.78125 282.429688 128.78125 282.429688 C 128.78125 282.429688 119.363281 282.898438 116.125 279.347656 Z M 272.6875 269.972656 C 272.6875 269.972656 263.738281 276.917969 260.5 280.46875 C 257.261719 284.019531 247.847656 283.558594 247.847656 283.558594 C 247.847656 283.558594 283.25 348.863281 283.027344 350.0625 C 282.800781 351.265625 354.152344 348.0625 354.152344 348.0625 Z M 272.6875 269.972656 " fill-opacity="1" fill-rule="evenodd"/><path fill="#1995ed" d="M 281.519531 349.402344 L 91.128906 351.875 L 128.773438 282.4375 L 244.484375 282.742188 Z M 272.730469 252.363281 L 101.574219 252.363281 L 101.574219 265.097656 L 272.730469 265.097656 Z M 272.730469 252.363281 " fill-opacity="1" fill-rule="evenodd"/><path fill="#ffffff" d="M 153.953125 96.523438 L 134.699219 163.496094 L 115.414062 163.496094 L 134.664062 96.523438 Z M 225.339844 95.75 L 206.085938 162.722656 L 225.375 162.722656 L 244.625 95.75 Z M 138.355469 163.488281 L 148 163.488281 L 167.25 96.515625 L 157.609375 96.515625 Z M 248.28125 95.75 L 229.027344 162.722656 L 238.671875 162.722656 L 257.925781 95.75 Z M 248.28125 95.75 " fill-opacity="0.549" fill-rule="evenodd"/><g clip-path="url(#c98b2e4756)"><path fill="#0a57a2" d="M 361.289062 352.046875 C 361.355469 351.890625 361.410156 351.726562 361.460938 351.558594 C 361.460938 351.550781 361.46875 351.535156 361.46875 351.527344 C 361.523438 351.359375 361.566406 351.195312 361.601562 351.027344 C 361.601562 351.019531 361.609375 351.003906 361.609375 350.996094 C 361.644531 350.820312 361.671875 350.636719 361.6875 350.453125 C 361.6875 350.453125 361.6875 350.453125 361.6875 350.445312 C 361.851562 348.800781 361.296875 347.09375 360.007812 345.859375 L 277.90625 266.429688 L 289.621094 247.792969 C 293.390625 243.5 295.6875 237.894531 295.6875 231.785156 L 295.6875 84.101562 C 295.6875 79.453125 295.609375 76.199219 294.46875 72.742188 C 293.3125 69.234375 291.234375 66.160156 287.308594 62.226562 L 262.425781 37.269531 C 257.507812 32.335938 251.039062 27.859375 244.589844 24.632812 C 237.914062 21.289062 231.082031 19.207031 225.722656 19.207031 L 149.582031 19.207031 C 144.222656 19.207031 137.390625 21.289062 130.695312 24.640625 C 124.246094 27.871094 117.78125 32.34375 112.863281 37.28125 L 87.988281 62.234375 C 84.070312 66.171875 81.992188 69.234375 80.824219 72.75 C 79.683594 76.199219 79.605469 79.460938 79.605469 84.109375 L 79.605469 231.8125 C 79.605469 238.058594 82.007812 243.796875 85.953125 248.140625 L 97.421875 266.421875 L 15.757812 345.421875 C 15.289062 345.796875 14.878906 346.242188 14.558594 346.746094 C 13.101562 348.878906 13.285156 351.820312 15.148438 353.753906 C 16.515625 355.179688 18.464844 355.710938 20.265625 355.355469 L 91.007812 355.382812 C 91.660156 355.496094 92.324219 355.496094 92.964844 355.382812 L 282.824219 355.441406 C 283.171875 355.476562 283.523438 355.476562 283.871094 355.441406 L 356.117188 355.46875 C 357.597656 355.476562 359.078125 354.910156 360.171875 353.761719 C 360.660156 353.257812 361.027344 352.683594 361.277344 352.074219 C 361.289062 352.066406 361.289062 352.054688 361.289062 352.046875 Z M 342.355469 344.308594 L 286.585938 344.292969 L 254.375 287.460938 C 257.316406 287.078125 260.472656 285.902344 263.355469 284.167969 C 266.699219 282.15625 269.804688 279.339844 271.804688 276.144531 L 271.839844 276.089844 Z M 109.390625 264.546875 C 109.3125 264.410156 109.226562 264.277344 109.136719 264.140625 L 104.117188 256.132812 L 271.214844 256.132812 L 266.125 264.234375 C 266.078125 264.296875 266.042969 264.355469 266.011719 264.417969 L 262.371094 270.199219 C 261.320312 271.878906 259.570312 273.425781 257.636719 274.59375 C 255.765625 275.714844 253.84375 276.414062 252.371094 276.414062 L 122.949219 276.414062 C 121.480469 276.414062 119.554688 275.714844 117.675781 274.59375 C 115.726562 273.425781 113.984375 271.878906 112.949219 270.222656 Z M 133.683594 287.617188 L 241.632812 287.617188 L 244.972656 293.519531 L 130.382812 293.421875 Z M 124.074219 304.5625 L 251.300781 304.667969 L 258.734375 317.777344 L 116.640625 317.683594 Z M 110.320312 328.824219 L 265.050781 328.929688 L 273.757812 344.28125 L 101.59375 344.230469 Z M 90.800781 84.101562 C 90.800781 80.523438 90.84375 78.070312 91.445312 76.242188 C 92.027344 74.472656 93.316406 72.679688 95.890625 70.097656 L 120.773438 45.140625 C 124.847656 41.046875 130.261719 37.3125 135.683594 34.605469 C 140.871094 32.011719 145.917969 30.402344 149.582031 30.402344 L 225.722656 30.402344 C 229.386719 30.402344 234.441406 32.011719 239.621094 34.605469 C 245.042969 37.324219 250.449219 41.058594 254.53125 45.140625 L 279.414062 70.097656 C 281.988281 72.679688 283.277344 74.472656 283.859375 76.242188 C 284.460938 78.070312 284.503906 80.523438 284.503906 84.101562 L 284.503906 231.800781 C 284.503906 235.421875 283.035156 238.714844 280.667969 241.082031 L 280.640625 241.105469 C 278.273438 243.476562 274.992188 244.945312 271.363281 244.945312 L 103.941406 244.945312 C 100.320312 244.945312 97.03125 243.476562 94.664062 241.105469 L 94.636719 241.082031 C 92.269531 238.714844 90.800781 235.433594 90.800781 231.800781 Z M 103.507812 276.125 C 105.527344 279.347656 108.617188 282.167969 111.949219 284.167969 C 114.828125 285.902344 117.996094 287.078125 120.941406 287.460938 L 88.773438 344.222656 L 33.070312 344.203125 L 103.488281 276.082031 Z M 108.695312 170.566406 L 175.753906 170.566406 C 178.84375 170.566406 181.351562 168.058594 181.351562 164.96875 L 181.351562 95.835938 C 181.351562 92.746094 178.84375 90.238281 175.753906 90.238281 L 108.695312 90.238281 C 105.605469 90.238281 103.097656 92.746094 103.097656 95.835938 L 103.097656 164.96875 C 103.097656 168.058594 105.605469 170.566406 108.695312 170.566406 Z M 114.289062 101.433594 L 170.15625 101.433594 L 170.15625 159.371094 L 114.289062 159.371094 Z M 199.558594 170.566406 L 266.621094 170.566406 C 269.710938 170.566406 272.214844 168.058594 272.214844 164.96875 L 272.214844 95.835938 C 272.214844 92.746094 269.710938 90.238281 266.621094 90.238281 L 199.558594 90.238281 C 196.46875 90.238281 193.960938 92.746094 193.960938 95.835938 L 193.960938 164.96875 C 193.960938 168.058594 196.46875 170.566406 199.558594 170.566406 Z M 205.15625 101.433594 L 261.023438 101.433594 L 261.023438 159.371094 L 205.15625 159.371094 Z M 220.203125 214.339844 C 220.203125 217.429688 217.695312 219.9375 214.605469 219.9375 L 160.707031 219.9375 C 157.617188 219.9375 155.109375 217.429688 155.109375 214.339844 C 155.109375 211.25 157.617188 208.742188 160.707031 208.742188 L 214.605469 208.742188 C 217.695312 208.742188 220.203125 211.25 220.203125 214.339844 Z M 109.644531 220.589844 C 113.691406 224.636719 119.277344 227.144531 125.449219 227.144531 C 131.617188 227.144531 137.214844 224.636719 141.246094 220.582031 C 145.300781 216.523438 147.808594 210.9375 147.808594 204.78125 C 147.808594 198.800781 145.441406 193.363281 141.585938 189.332031 L 141.253906 188.976562 C 137.207031 184.925781 131.617188 182.421875 125.449219 182.421875 C 119.277344 182.421875 113.679688 184.925781 109.652344 188.984375 C 105.59375 193.039062 103.089844 198.628906 103.089844 204.78125 C 103.089844 210.761719 105.457031 216.203125 109.3125 220.234375 Z M 117.535156 196.878906 L 117.5625 196.878906 C 119.582031 194.859375 122.375 193.605469 125.457031 193.605469 C 128.539062 193.605469 131.332031 194.859375 133.351562 196.878906 L 133.601562 197.113281 C 135.476562 199.097656 136.625 201.796875 136.625 204.773438 C 136.625 207.871094 135.378906 210.667969 133.378906 212.667969 L 133.351562 212.667969 C 131.332031 214.6875 128.539062 215.941406 125.457031 215.941406 C 122.375 215.941406 119.582031 214.6875 117.5625 212.667969 L 117.308594 212.433594 C 115.4375 210.449219 114.289062 207.75 114.289062 204.773438 C 114.289062 201.675781 115.527344 198.882812 117.535156 196.878906 Z M 249.855469 182.410156 C 243.683594 182.410156 238.089844 184.917969 234.050781 188.964844 L 233.71875 189.324219 C 229.863281 193.351562 227.496094 198.792969 227.496094 204.773438 C 227.496094 210.929688 230.003906 216.515625 234.050781 220.582031 C 238.097656 224.628906 243.683594 227.136719 249.855469 227.136719 C 256.027344 227.136719 261.625 224.628906 265.660156 220.582031 L 265.992188 220.226562 C 269.847656 216.195312 272.214844 210.753906 272.214844 204.773438 C 272.214844 198.621094 269.710938 193.03125 265.660156 188.964844 C 261.613281 184.917969 256.027344 182.410156 249.855469 182.410156 Z M 258.003906 212.433594 L 257.75 212.667969 C 255.730469 214.6875 252.9375 215.941406 249.855469 215.941406 C 246.773438 215.941406 243.980469 214.6875 241.960938 212.667969 L 241.9375 212.667969 C 239.933594 210.667969 238.691406 207.871094 238.691406 204.773438 C 238.691406 201.796875 239.839844 199.097656 241.710938 197.113281 L 241.960938 196.878906 C 243.980469 194.859375 246.773438 193.605469 249.855469 193.605469 C 252.9375 193.605469 255.730469 194.859375 257.75 196.878906 L 257.777344 196.878906 C 259.777344 198.882812 261.023438 201.675781 261.023438 204.773438 C 261.023438 207.757812 259.875 210.449219 258.003906 212.433594 Z M 154.011719 66.335938 C 156.921875 69.234375 160.921875 71.027344 165.320312 71.027344 C 169.722656 71.027344 173.726562 69.234375 176.640625 66.316406 L 176.667969 66.292969 C 179.566406 63.382812 181.359375 59.378906 181.359375 54.984375 C 181.359375 50.578125 179.566406 46.574219 176.652344 43.660156 L 176.625 43.632812 C 173.71875 40.734375 169.714844 38.941406 165.320312 38.941406 C 160.914062 38.941406 156.910156 40.734375 154.003906 43.640625 L 153.976562 43.667969 C 151.078125 46.585938 149.289062 50.589844 149.289062 54.976562 C 149.289062 59.378906 151.078125 63.382812 153.996094 66.300781 Z M 161.863281 51.5625 L 161.890625 51.539062 C 162.75 50.675781 163.960938 50.144531 165.320312 50.144531 C 166.675781 50.144531 167.886719 50.683594 168.75 51.539062 L 168.773438 51.5625 C 169.636719 52.425781 170.167969 53.636719 170.167969 54.992188 C 170.167969 56.351562 169.628906 57.5625 168.773438 58.421875 L 168.75 58.449219 C 167.886719 59.3125 166.675781 59.84375 165.320312 59.84375 C 163.960938 59.84375 162.75 59.300781 161.890625 58.449219 L 161.863281 58.421875 C 161.003906 57.5625 160.472656 56.351562 160.472656 54.992188 C 160.472656 53.636719 161.011719 52.425781 161.863281 51.5625 Z M 198.679688 66.328125 C 201.585938 69.234375 205.597656 71.027344 209.996094 71.027344 C 214.390625 71.027344 218.382812 69.234375 221.308594 66.328125 L 221.335938 66.300781 C 224.242188 63.394531 226.035156 59.378906 226.035156 54.984375 C 226.035156 50.589844 224.242188 46.59375 221.335938 43.667969 L 221.308594 43.640625 C 218.402344 40.734375 214.390625 38.941406 209.996094 38.941406 C 205.597656 38.941406 201.605469 40.734375 198.679688 43.640625 L 198.652344 43.667969 C 195.746094 46.574219 193.953125 50.589844 193.953125 54.984375 C 193.953125 59.378906 195.746094 63.375 198.652344 66.300781 Z M 206.546875 51.5625 L 206.574219 51.539062 C 207.433594 50.675781 208.644531 50.144531 210.003906 50.144531 C 211.359375 50.144531 212.570312 50.683594 213.433594 51.539062 L 213.457031 51.5625 C 214.320312 52.425781 214.851562 53.636719 214.851562 54.992188 C 214.851562 56.351562 214.3125 57.5625 213.457031 58.421875 L 213.433594 58.449219 C 212.570312 59.3125 211.359375 59.84375 210.003906 59.84375 C 208.644531 59.84375 207.433594 59.300781 206.574219 58.449219 L 206.546875 58.421875 C 205.6875 57.5625 205.15625 56.351562 205.15625 54.992188 C 205.15625 53.636719 205.695312 52.425781 206.546875 51.5625 Z M 206.546875 51.5625 " fill-opacity="1" fill-rule="nonzero"/></g></svg>