<svg xmlns="http://www.w3.org/2000/svg" xmlns:xlink="http://www.w3.org/1999/xlink" width="500" zoomAndPan="magnify" viewBox="0 0 375 374.999991" height="500" preserveAspectRatio="xMidYMid meet" version="1.0"><defs><clipPath id="539f7a303b"><path d="M 20 101.128906 L 319 101.128906 L 319 251 L 20 251 Z M 20 101.128906 " clip-rule="nonzero"/></clipPath><clipPath id="54a4b2aaa4"><path d="M 145 146 L 348.894531 146 L 348.894531 265 L 145 265 Z M 145 146 " clip-rule="nonzero"/></clipPath></defs><path fill="#1995ed" d="M 286.40625 149.9375 C 282.800781 151.765625 278.710938 152.625 274.75 153.289062 C 270.789062 153.949219 266.738281 154.296875 262.710938 154.6875 C 261.316406 154.820312 259.265625 155.421875 258.003906 154.605469 C 256.742188 153.789062 256.90625 152.109375 256.925781 150.882812 C 257.066406 147.125 257.664062 143.445312 258.726562 139.839844 C 259.589844 136.742188 260.941406 133.421875 263.597656 131.382812 C 268.023438 127.929688 274.402344 129.234375 279.339844 130.742188 C 282.210938 131.617188 285.242188 132.574219 287.660156 134.347656 C 288.339844 134.832031 288.949219 135.390625 289.492188 136.019531 C 289.78125 136.332031 290.023438 136.671875 290.226562 137.042969 C 290.339844 137.351562 290.40625 137.671875 290.425781 138 C 290.679688 138.746094 290.988281 139.464844 291.351562 140.164062 C 291.667969 141.015625 291.84375 141.890625 291.875 142.800781 C 291.910156 146.148438 289.203125 148.527344 286.40625 149.9375 Z M 126.578125 170.386719 C 128.90625 170.511719 131.234375 170.511719 133.5625 170.386719 C 143.101562 169.929688 152.574219 168.714844 162.085938 167.949219 C 166.753906 167.574219 171.4375 167.421875 176.101562 166.898438 C 180.277344 166.425781 184.394531 165.652344 188.039062 163.46875 C 190.023438 162.273438 191.925781 160.9375 193.859375 159.65625 C 195.792969 158.375 197.605469 157.136719 199.398438 155.777344 C 203.035156 153.015625 206.4375 149.953125 209.882812 146.945312 C 216.808594 140.9375 223.476562 134.652344 229.800781 128.050781 C 232.640625 125.265625 235.140625 122.207031 237.304688 118.871094 C 238.433594 117 240.253906 113.894531 239.007812 111.695312 C 238.109375 110.089844 236.136719 110.105469 234.542969 110.316406 C 232.242188 110.632812 229.941406 110.929688 227.640625 111.207031 C 222.886719 111.773438 218.160156 112.480469 213.445312 113.285156 C 209.070312 114.019531 204.769531 114.945312 200.710938 116.789062 C 196.65625 118.765625 192.851562 121.148438 189.300781 123.925781 C 181.871094 129.417969 174.011719 134.230469 166.339844 139.382812 C 158.667969 144.535156 151.121094 150.234375 143.273438 155.3125 C 139.347656 157.851562 135.386719 160.339844 131.644531 163.152344 C 129.839844 164.511719 128.007812 165.84375 126.261719 167.28125 C 125.765625 167.683594 124.859375 168.265625 125.09375 169.023438 C 125.144531 169.1875 125.832031 170.128906 125.980469 169.761719 " fill-opacity="1" fill-rule="evenodd"/><path fill="#303b4a" d="M 264.644531 154.03125 C 264.644531 154.179688 264.671875 154.324219 264.730469 154.472656 L 262.746094 154.664062 C 262.691406 154.398438 262.648438 154.132812 262.621094 153.863281 C 262.621094 153.472656 262.578125 153.082031 262.570312 152.683594 C 262.570312 152.160156 262.570312 151.632812 262.570312 151.101562 C 262.605469 150.164062 262.691406 149.226562 262.820312 148.296875 C 262.878906 147.886719 262.960938 147.480469 263.050781 147.074219 L 263.398438 145.515625 L 263.683594 144.109375 C 263.796875 143.660156 263.949219 143.222656 264.140625 142.800781 C 264.535156 141.894531 264.980469 141.019531 265.484375 140.171875 C 265.996094 139.285156 266.570312 138.445312 267.210938 137.648438 C 267.921875 136.792969 268.742188 136.058594 269.667969 135.4375 C 270.132812 135.128906 270.605469 134.84375 271.097656 134.570312 C 271.53125 134.320312 271.980469 134.109375 272.449219 133.9375 L 272.566406 133.894531 C 273.0625 133.746094 273.570312 133.644531 274.085938 133.589844 C 274.617188 133.523438 275.140625 133.496094 275.664062 133.457031 C 276.1875 133.425781 276.714844 133.425781 277.238281 133.457031 C 277.730469 133.492188 278.222656 133.550781 278.710938 133.636719 L 280.253906 133.90625 C 280.757812 134 281.25 134.132812 281.730469 134.304688 C 282.199219 134.488281 282.660156 134.699219 283.109375 134.929688 C 283.582031 135.167969 284.03125 135.417969 284.480469 135.667969 C 284.886719 135.90625 285.277344 136.171875 285.648438 136.460938 C 286.023438 136.765625 286.382812 137.066406 286.738281 137.402344 L 287.386719 138.039062 C 287.945312 138.535156 288.539062 138.980469 289.171875 139.375 C 289.472656 139.558594 289.785156 139.710938 290.109375 139.839844 L 290.390625 139.957031 C 290.476562 139.992188 290.550781 140.039062 290.621094 140.097656 L 290.714844 140.199219 C 290.75 140.242188 290.777344 140.285156 290.804688 140.332031 C 290.832031 140.386719 290.855469 140.441406 290.878906 140.496094 C 290.921875 140.601562 290.953125 140.710938 290.964844 140.828125 C 290.96875 140.886719 290.949219 140.941406 290.914062 140.988281 C 290.914062 141.039062 290.847656 141.078125 290.824219 141.070312 C 290.792969 140.992188 290.75 140.917969 290.699219 140.847656 L 290.613281 140.746094 C 290.539062 140.675781 290.453125 140.621094 290.359375 140.578125 L 290.023438 140.453125 C 289.796875 140.378906 289.574219 140.296875 289.359375 140.199219 C 288.949219 140.003906 288.554688 139.773438 288.183594 139.507812 C 287.816406 139.25 287.445312 138.957031 287.109375 138.65625 C 286.769531 138.355469 286.445312 138.050781 286.097656 137.78125 C 285.75 137.507812 285.359375 137.191406 284.976562 136.925781 C 284.574219 136.664062 284.15625 136.4375 283.722656 136.242188 C 282.871094 135.824219 281.984375 135.496094 281.066406 135.261719 C 280.59375 135.152344 280.121094 135.070312 279.632812 134.996094 C 279.148438 134.921875 278.652344 134.828125 278.160156 134.777344 C 277.183594 134.679688 276.222656 134.738281 275.265625 134.953125 C 274.789062 135.054688 274.324219 135.1875 273.851562 135.304688 C 273.402344 135.417969 272.96875 135.578125 272.558594 135.792969 C 272.113281 136.042969 271.6875 136.320312 271.277344 136.625 C 270.882812 136.902344 270.507812 137.199219 270.148438 137.515625 C 269.460938 138.101562 268.855469 138.765625 268.332031 139.5 C 267.832031 140.238281 267.410156 140.972656 266.988281 141.710938 C 266.777344 142.09375 266.578125 142.484375 266.378906 142.871094 C 266.171875 143.257812 265.988281 143.652344 265.824219 144.058594 C 265.664062 144.476562 265.550781 144.90625 265.476562 145.347656 C 265.402344 145.757812 265.328125 146.164062 265.242188 146.566406 L 265.019531 147.613281 C 264.917969 148.144531 264.820312 148.671875 264.769531 149.203125 C 264.671875 150.050781 264.605469 150.894531 264.570312 151.71875 C 264.519531 152.492188 264.542969 153.261719 264.644531 154.03125 Z M 158.269531 163.320312 C 160.199219 161.847656 162.105469 160.375 163.996094 158.902344 L 167.558594 156.171875 L 169.910156 154.378906 C 170.828125 153.640625 171.726562 152.90625 172.617188 152.214844 C 173.511719 151.523438 174.53125 150.644531 175.527344 149.910156 L 178.519531 147.703125 C 179.53125 146.964844 180.519531 146.230469 181.472656 145.492188 C 183.40625 144.019531 185.277344 142.550781 187.144531 141.003906 C 189.011719 139.457031 190.945312 137.964844 192.855469 136.453125 L 195.804688 134.152344 L 198.875 131.78125 C 199.820312 131.042969 200.808594 130.433594 201.824219 129.808594 L 204.984375 127.820312 C 207.105469 126.496094 209.304688 125.308594 211.578125 124.257812 C 212.765625 123.714844 213.96875 123.207031 215.171875 122.691406 C 216.375 122.175781 217.515625 121.6875 218.71875 121.21875 C 221.097656 120.339844 223.519531 119.605469 225.988281 119.011719 C 227.226562 118.6875 228.488281 118.445312 229.75 118.222656 C 231.011719 118 232.234375 117.882812 233.480469 117.789062 C 234.730469 117.691406 235.859375 117.648438 237.039062 117.574219 L 238.078125 117.574219 C 238.203125 117.347656 238.320312 117.117188 238.441406 116.882812 L 236.964844 116.925781 L 237.023438 116.925781 L 234.625 116.992188 C 233.371094 117.066406 232.109375 117.148438 230.863281 117.300781 C 229.617188 117.457031 228.398438 117.65625 227.175781 117.875 C 225.949219 118.097656 224.503906 118.445312 223.183594 118.789062 C 221.863281 119.136719 220.660156 119.460938 219.40625 119.835938 C 218.152344 120.210938 216.972656 120.6875 215.777344 121.175781 C 214.582031 121.660156 213.363281 122.175781 212.167969 122.683594 C 210.972656 123.191406 209.882812 123.675781 208.769531 124.214844 C 207.652344 124.75 206.464844 125.324219 205.351562 125.929688 L 202.03125 127.730469 C 200.96875 128.328125 199.898438 128.933594 198.890625 129.585938 L 198.644531 129.75 C 197.679688 130.367188 196.78125 131.058594 195.859375 131.722656 L 192.789062 133.988281 C 190.761719 135.460938 188.761719 137.019531 186.804688 138.589844 C 184.851562 140.15625 183.019531 141.644531 181.089844 143.117188 C 179.15625 144.589844 177.179688 146.058594 175.1875 147.53125 C 174.242188 148.222656 173.296875 148.921875 172.390625 149.667969 L 169.550781 151.976562 C 168.464844 152.839844 167.335938 153.679688 166.238281 154.515625 L 163.640625 156.496094 L 157.820312 161.023438 L 154.5 163.5625 L 152.023438 165.441406 C 151.066406 166.175781 150.128906 166.925781 149.210938 167.691406 C 148.753906 168.074219 148.304688 168.472656 147.867188 168.878906 L 147.574219 169.171875 L 147.453125 169.304688 L 151.003906 168.957031 C 151.644531 168.414062 152.289062 167.875 152.945312 167.355469 C 154.683594 165.96875 156.492188 164.667969 158.269531 163.320312 Z M 158.269531 163.320312 " fill-opacity="1" fill-rule="nonzero"/><path fill="#dffff7" d="M 229.445312 243.777344 C 229.328125 245.207031 229.285156 246.832031 228.503906 248.078125 C 228.058594 248.730469 227.457031 249.148438 226.6875 249.335938 C 225.65625 249.644531 224.601562 249.894531 223.558594 250.183594 C 221.480469 250.757812 219.382812 251.285156 217.28125 251.785156 C 213.070312 252.78125 208.828125 253.648438 204.546875 254.324219 C 202.410156 254.65625 200.261719 254.886719 198.113281 255.171875 C 197.296875 255.289062 196.25 255.511719 195.460938 255.171875 C 194.730469 254.691406 194.257812 254.027344 194.050781 253.175781 C 193.453125 251.332031 193.039062 249.449219 192.8125 247.523438 C 192.449219 245.316406 192.167969 243.152344 191.917969 240.964844 C 191.667969 238.78125 191.476562 236.691406 191.296875 234.546875 C 191.21875 233.554688 191.164062 232.5625 191.113281 231.566406 C 190.972656 230.664062 191.082031 229.792969 191.4375 228.953125 C 192.175781 227.703125 193.960938 227.480469 195.261719 227.261719 C 197.472656 226.90625 199.6875 226.648438 201.898438 226.460938 C 206.84375 226.03125 211.792969 225.839844 216.75 225.839844 C 218.90625 225.839844 221.054688 225.902344 223.207031 226.023438 C 224.621094 226.105469 226.386719 226.023438 227.449219 227.136719 C 228.507812 228.246094 228.648438 229.96875 228.855469 231.398438 C 229.144531 233.421875 229.351562 235.445312 229.476562 237.484375 C 229.621094 239.582031 229.609375 241.679688 229.445312 243.777344 Z M 229.445312 243.777344 " fill-opacity="1" fill-rule="evenodd"/><path fill="#0a57a2" d="M 201.398438 244.984375 C 201.160156 247.464844 200.824219 250.042969 199.671875 252.292969 C 198.757812 254.089844 197.15625 255.644531 195.023438 255.628906 C 192.890625 255.613281 191.121094 254.089844 189.96875 252.414062 C 187.417969 248.730469 186.695312 243.925781 186.746094 239.507812 C 186.746094 236.800781 187.003906 233.953125 188.148438 231.464844 C 188.605469 230.320312 189.34375 229.402344 190.363281 228.710938 C 191.578125 228.082031 192.875 227.8125 194.242188 227.902344 C 195.261719 227.863281 196.230469 228.058594 197.152344 228.496094 C 198.074219 228.933594 198.839844 229.5625 199.449219 230.375 C 200.75 232.28125 201.074219 234.792969 201.390625 237 C 201.714844 239.660156 201.714844 242.324219 201.398438 244.984375 Z M 201.398438 244.984375 " fill-opacity="1" fill-rule="evenodd"/><path fill="#303b4a" d="M 201.625 240.65625 C 201.625 241.019531 201.625 241.394531 201.625 241.753906 C 197.332031 243.742188 193.210938 246.171875 192.988281 246.289062 C 192.949219 246.308594 192.910156 246.320312 192.871094 246.332031 C 193.941406 247.414062 196.417969 249.960938 198.773438 252.558594 C 198.917969 252.730469 199.074219 252.890625 199.222656 253.050781 C 199.039062 253.328125 198.839844 253.585938 198.625 253.832031 L 198.042969 253.273438 C 195.878906 251.175781 193.6875 249.085938 192.40625 247.871094 C 192.316406 249.59375 192.183594 252.082031 192.027344 254.546875 C 191.664062 254.28125 191.324219 253.988281 191.011719 253.664062 C 191.011719 250.71875 191.046875 247.839844 191.0625 246.457031 C 191.003906 246.304688 190.988281 246.148438 191.019531 245.988281 C 190.222656 246.164062 188.953125 246.421875 187.507812 246.722656 C 187.410156 246.332031 187.320312 245.941406 187.25 245.542969 L 190.355469 244.75 C 189.832031 243.824219 188.332031 241.164062 186.777344 238.53125 C 186.777344 237.976562 186.828125 237.425781 186.871094 236.867188 L 187.558594 237.851562 C 189.484375 240.648438 191.296875 243.558594 191.703125 244.21875 C 192.789062 241.894531 193.984375 239.625 195.296875 237.417969 C 197.273438 234.046875 199.574219 230.972656 199.722656 231.082031 C 199.871094 231.191406 197.894531 234.453125 196.167969 237.90625 C 194.765625 240.636719 193.542969 243.476562 193.0625 244.617188 C 194.535156 243.835938 197.804688 242.1875 201.175781 240.847656 Z M 201.625 240.65625 " fill-opacity="1" fill-rule="nonzero"/><g clip-path="url(#539f7a303b)"><path fill="#dffff7" d="M 318.519531 137.550781 C 318.246094 143.375 316.234375 149.011719 313.453125 154.105469 C 310.800781 158.847656 307.417969 162.992188 303.300781 166.542969 C 298.875 170.289062 294.140625 173.597656 289.101562 176.464844 C 283.933594 179.558594 278.601562 182.464844 273.3125 185.402344 C 262.542969 191.378906 251.683594 197.179688 240.660156 202.691406 C 229.636719 208.203125 218.652344 213.351562 207.394531 218.066406 C 196.136719 222.785156 184.667969 227.097656 173.015625 230.839844 C 161.371094 234.601562 149.554688 237.734375 137.570312 240.230469 C 131.476562 241.480469 125.332031 242.484375 119.199219 243.566406 C 113.070312 244.648438 107.09375 245.867188 101.035156 246.996094 C 88.921875 249.300781 76.703125 250.566406 64.371094 250.792969 C 58.207031 250.957031 52.058594 250.710938 45.929688 250.058594 C 40.507812 249.402344 34.949219 248.15625 30.199219 245.359375 C 28.183594 244.203125 26.421875 242.742188 24.917969 240.972656 C 23.410156 239.203125 22.25 237.230469 21.433594 235.054688 C 19.679688 230.183594 21.554688 224.671875 24.460938 220.644531 C 27.507812 216.425781 32.132812 213.726562 36.714844 211.457031 C 39.382812 210.140625 42.136719 208.976562 44.734375 207.511719 C 47.246094 206.074219 49.652344 204.472656 51.941406 202.699219 C 56.367188 199.277344 60.160156 195.082031 63.789062 190.820312 C 67.417969 186.558594 70.972656 182.207031 75.480469 178.894531 C 79.855469 175.722656 84.933594 173.722656 90.097656 172.132812 C 101.679688 168.570312 113.644531 166.472656 125.625 164.769531 C 137.929688 163.046875 150.289062 161.703125 162.636719 160.289062 C 174.988281 158.875 187.476562 157.710938 199.953125 156.785156 C 212.425781 155.855469 224.886719 154.855469 237.332031 153.648438 C 243.550781 153.046875 249.765625 152.382812 255.960938 151.582031 C 261.863281 150.84375 267.765625 150.027344 273.460938 148.320312 C 276 147.628906 278.191406 146.34375 280.03125 144.460938 C 282.082031 142.335938 283.964844 140.046875 285.847656 137.765625 C 289.578125 133.304688 292.921875 128.570312 295.878906 123.566406 C 298.875 118.558594 301.296875 113.289062 303.136719 107.757812 C 303.53125 106.519531 303.875 105.0625 304.6875 104.039062 C 305.496094 103.203125 306.480469 102.710938 307.640625 102.566406 C 309.101562 102.296875 310.578125 102.109375 312.066406 102.015625 C 313.074219 101.925781 314.742188 101.359375 315.320312 102.472656 C 315.703125 103.484375 315.949219 104.535156 316.054688 105.613281 C 316.351562 107.085938 316.566406 108.558594 316.792969 109.980469 C 317.230469 113.035156 317.53125 116.09375 317.820312 119.164062 C 318.460938 125.277344 318.695312 131.40625 318.519531 137.550781 Z M 318.519531 137.550781 " fill-opacity="1" fill-rule="evenodd"/></g><path fill="#303b4a" d="M 70.28125 183.710938 C 70.15625 183.710938 69.957031 183.78125 69.839844 183.710938 C 70.082031 183.855469 70.472656 183.769531 70.746094 183.789062 C 71.300781 183.839844 71.851562 183.980469 72.40625 184.070312 C 73.648438 184.261719 74.902344 184.414062 76.167969 184.535156 C 78.535156 184.769531 80.902344 184.894531 83.28125 185.027344 C 85.773438 185.167969 88.265625 185.277344 90.761719 185.234375 C 93.253906 185.1875 95.628906 185.070312 98.0625 185.234375 C 99.902344 185.34375 101.9375 185.527344 103.417969 186.703125 C 104.109375 187.335938 104.632812 188.085938 104.984375 188.953125 C 105.335938 189.816406 105.488281 190.71875 105.433594 191.652344 C 105.433594 193.859375 104.46875 195.882812 103.472656 197.769531 C 102.527344 199.671875 101.320312 201.386719 99.847656 202.921875 C 96.832031 205.863281 92.65625 207.335938 88.636719 208.335938 C 84.015625 209.488281 79.320312 210.117188 74.558594 210.222656 C 69.640625 210.394531 64.746094 210.089844 59.886719 209.308594 C 57.5625 208.925781 55.28125 208.386719 53.03125 207.691406 C 51.972656 207.328125 50.941406 206.902344 49.933594 206.410156 C 49.433594 206.171875 48.457031 205.894531 48.851562 205.1875 C 49.242188 204.480469 50.148438 204.097656 50.6875 203.625 C 51.566406 202.890625 52.464844 202.109375 53.363281 201.367188 C 55.140625 199.894531 56.929688 198.421875 58.527344 196.789062 C 61.847656 193.46875 64.886719 189.882812 67.949219 186.328125 C 68.742188 185.480469 69.519531 184.605469 70.28125 183.710938 Z M 255.347656 168.945312 C 250.066406 167.390625 245.957031 174.339844 248.347656 178.753906 C 248.609375 179.257812 248.953125 179.695312 249.375 180.070312 C 249.800781 180.445312 250.277344 180.730469 250.808594 180.929688 C 251.335938 181.132812 251.886719 181.230469 252.453125 181.226562 C 253.019531 181.226562 253.566406 181.121094 254.09375 180.917969 C 254.648438 180.664062 255.164062 180.34375 255.636719 179.957031 C 256.105469 179.566406 256.519531 179.121094 256.875 178.625 C 257.226562 178.128906 257.511719 177.59375 257.722656 177.019531 C 257.9375 176.449219 258.074219 175.859375 258.128906 175.25 C 258.402344 172.898438 257.664062 170.035156 255.347656 168.945312 Z M 236.726562 171.886719 C 236.109375 171.828125 235.496094 171.859375 234.886719 171.976562 C 234.273438 172.09375 233.695312 172.296875 233.140625 172.578125 C 232.589844 172.863281 232.089844 173.222656 231.640625 173.648438 C 231.191406 174.078125 230.8125 174.558594 230.5 175.097656 C 230.195312 175.65625 229.964844 176.246094 229.816406 176.867188 C 229.667969 177.488281 229.601562 178.117188 229.625 178.753906 C 229.644531 179.390625 229.746094 180.015625 229.933594 180.625 C 230.121094 181.234375 230.386719 181.808594 230.730469 182.347656 C 231.058594 182.851562 231.460938 183.292969 231.9375 183.664062 C 232.410156 184.035156 232.933594 184.324219 233.503906 184.523438 C 234.074219 184.722656 234.660156 184.824219 235.265625 184.832031 C 235.867188 184.835938 236.457031 184.746094 237.03125 184.554688 C 239.324219 183.695312 240.609375 181.292969 241.035156 179.011719 C 241.402344 177.511719 241.230469 176.078125 240.519531 174.707031 C 239.585938 173.324219 238.324219 172.386719 236.726562 171.886719 Z M 219.9375 176.398438 C 218.410156 174.53125 215.332031 174.640625 213.347656 175.664062 C 210.972656 176.871094 209.835938 179.644531 209.925781 182.207031 C 210.015625 184.769531 211.351562 187.359375 213.871094 188.097656 C 214.511719 188.277344 215.160156 188.34375 215.824219 188.296875 C 216.484375 188.25 217.121094 188.089844 217.726562 187.820312 C 218.332031 187.550781 218.875 187.1875 219.355469 186.730469 C 219.832031 186.273438 220.21875 185.746094 220.511719 185.152344 C 220.894531 184.472656 221.171875 183.753906 221.347656 182.996094 C 221.519531 182.234375 221.582031 181.46875 221.53125 180.691406 C 221.476562 179.914062 221.316406 179.160156 221.046875 178.429688 C 220.777344 177.699219 220.40625 177.023438 219.9375 176.398438 Z M 197.644531 177.429688 C 196.972656 177.402344 196.3125 177.460938 195.65625 177.605469 C 195.003906 177.75 194.378906 177.976562 193.785156 178.285156 C 193.191406 178.59375 192.644531 178.972656 192.152344 179.425781 C 191.65625 179.878906 191.230469 180.386719 190.871094 180.949219 C 189.585938 183.039062 189.1875 185.992188 190.546875 188.148438 C 191.96875 190.414062 194.972656 190.945312 197.40625 190.355469 C 198.011719 190.195312 198.582031 189.953125 199.113281 189.625 C 199.648438 189.296875 200.125 188.898438 200.539062 188.429688 C 200.957031 187.964844 201.292969 187.445312 201.558594 186.878906 C 201.820312 186.3125 201.996094 185.71875 202.085938 185.101562 C 202.398438 183.441406 202.167969 181.859375 201.390625 180.359375 C 200.492188 178.949219 199.253906 177.972656 197.671875 177.429688 Z M 175.996094 180.027344 C 175.871094 180.226562 175.023438 180.027344 174.832031 180.027344 C 173.890625 180 172.988281 180.164062 172.117188 180.523438 C 170.546875 181.261719 169.292969 182.363281 168.355469 183.820312 C 167.917969 184.492188 167.582031 185.210938 167.347656 185.980469 C 167.113281 186.746094 166.992188 187.53125 166.984375 188.332031 C 166.972656 189.136719 167.074219 189.921875 167.289062 190.695312 C 167.503906 191.46875 167.824219 192.199219 168.246094 192.878906 C 169.765625 195.28125 172.816406 196.832031 175.503906 195.289062 C 177.828125 193.953125 178.816406 190.988281 179.140625 188.484375 C 179.507812 185.667969 179.257812 181.941406 176.566406 180.277344 M 152.699219 184.210938 C 147.054688 183.835938 144.078125 191.480469 145.789062 196.046875 C 145.921875 196.402344 146.09375 196.742188 146.300781 197.066406 C 146.503906 197.390625 146.742188 197.6875 147.007812 197.964844 C 147.273438 198.238281 147.566406 198.484375 147.882812 198.699219 C 148.199219 198.914062 148.535156 199.097656 148.890625 199.242188 C 149.242188 199.390625 149.609375 199.5 149.984375 199.574219 C 150.359375 199.648438 150.742188 199.683594 151.125 199.675781 C 151.507812 199.671875 151.886719 199.632812 152.261719 199.550781 C 152.636719 199.46875 153 199.351562 153.347656 199.195312 C 156.257812 197.964844 158.101562 194.707031 158.511719 191.6875 C 158.925781 188.671875 157.777344 185.019531 154.300781 184.4375 M 138.484375 195.875 C 138.277344 194.085938 138.070312 192.195312 137.140625 190.644531 C 136.691406 189.941406 136.128906 189.34375 135.453125 188.855469 C 134.78125 188.363281 134.039062 188.011719 133.230469 187.800781 C 131.390625 187.175781 129.546875 187.175781 127.707031 187.800781 C 126.167969 188.488281 125.019531 189.582031 124.253906 191.078125 C 122.511719 194.152344 122.246094 198.214844 124.652344 201.035156 C 125.179688 201.617188 125.78125 202.113281 126.449219 202.523438 C 127.117188 202.9375 127.828125 203.25 128.585938 203.460938 C 129.339844 203.675781 130.113281 203.78125 130.898438 203.78125 C 131.683594 203.777344 132.453125 203.667969 133.210938 203.449219 C 136.492188 202.441406 138.277344 199.121094 138.5 195.882812 Z M 138.484375 195.875 " fill-opacity="1" fill-rule="nonzero"/><g clip-path="url(#54a4b2aaa4)"><path fill="#1995ed" d="M 145.011719 223.042969 C 145.011719 223.042969 145.863281 221.617188 145.972656 221.460938 C 146.84375 220.265625 147.808594 219.152344 148.871094 218.121094 C 151.117188 215.941406 153.527344 213.960938 156.101562 212.179688 C 161.066406 208.617188 166.359375 205.644531 171.984375 203.257812 C 177.945312 200.800781 184.09375 198.972656 190.429688 197.769531 C 193.621094 197.132812 196.832031 196.621094 200.0625 196.230469 C 203.207031 195.832031 206.472656 195.550781 209.59375 196.273438 C 212.546875 196.957031 215.347656 198.394531 218.144531 199.601562 C 221.175781 200.902344 224.195312 202.257812 227.234375 203.546875 C 230.273438 204.832031 233.261719 205.96875 236.226562 207.300781 C 239.191406 208.632812 242.128906 210.113281 245.078125 211.582031 C 250.980469 214.527344 256.972656 217.230469 262.785156 220.261719 C 268.597656 223.292969 274.292969 226.53125 280.179688 229.433594 C 286.066406 232.332031 291.984375 235.101562 297.796875 238.148438 C 303.609375 241.195312 309.601562 244.359375 315.503906 247.40625 C 316.980469 248.144531 318.453125 248.878906 319.929688 249.617188 C 321.351562 250.25 322.691406 251.027344 323.949219 251.949219 C 324.226562 252.117188 324.476562 252.316406 324.707031 252.542969 C 324.9375 252.773438 325.136719 253.023438 325.304688 253.296875 C 325.476562 253.570312 325.613281 253.859375 325.714844 254.167969 C 325.820312 254.472656 325.886719 254.785156 325.914062 255.109375 C 325.945312 255.429688 325.9375 255.75 325.890625 256.070312 C 325.847656 256.390625 325.765625 256.699219 325.648438 257 C 325.53125 257.300781 325.382812 257.582031 325.199219 257.847656 C 325.015625 258.117188 324.800781 258.355469 324.5625 258.574219 C 322.8125 260.53125 320.171875 261.378906 317.738281 262.113281 C 314.632812 263.039062 311.476562 263.71875 308.265625 264.152344 C 301.6875 264.96875 295.085938 265.191406 288.464844 264.816406 C 285.175781 264.675781 281.878906 264.503906 278.601562 264.078125 C 275.394531 263.628906 272.234375 262.972656 269.113281 262.105469 C 262.746094 260.375 256.574219 258.132812 250.25 256.171875 C 243.929688 254.214844 237.449219 252.300781 231.070312 250.34375 C 218.277344 246.433594 205.550781 242.335938 192.847656 238.167969 C 180.144531 234.003906 167.285156 229.894531 154.484375 225.914062 Z M 348.894531 168.996094 C 348.839844 164.800781 345.484375 161.589844 342.488281 159.089844 C 338.757812 155.988281 334.742188 153.324219 330.433594 151.085938 C 328.097656 149.871094 325.71875 148.6875 323.300781 147.65625 C 320.882812 146.625 318.425781 145.671875 315.863281 146.125 C 313.503906 146.546875 311.164062 147.972656 309.226562 149.292969 C 307.1875 150.675781 305.277344 152.21875 303.5 153.921875 C 299.871094 157.304688 296.746094 161.105469 294.125 165.316406 C 292.738281 167.382812 291.632812 169.59375 290.804688 171.941406 C 290.566406 172.675781 290.316406 173.722656 290.980469 174.355469 C 291.21875 174.542969 291.433594 174.753906 291.628906 174.988281 C 291.832031 175.304688 292.117188 175.496094 292.484375 175.570312 C 295.023438 176.371094 297.445312 177.476562 299.9375 178.394531 C 302.457031 179.316406 305.042969 180.003906 307.691406 180.457031 C 313.070312 181.382812 318.476562 181.640625 323.921875 181.234375 C 328.9375 180.820312 333.855469 179.882812 338.675781 178.433594 C 342.222656 177.378906 346.25 175.839844 348.109375 172.394531 C 348.664062 171.328125 348.925781 170.195312 348.894531 168.996094 Z M 348.894531 168.996094 " fill-opacity="1" fill-rule="evenodd"/></g><path fill="#dffff7" d="M 58.582031 203.265625 C 59.070312 203.203125 59.5625 203.203125 60.054688 203.265625 L 63.980469 203.480469 C 67.226562 203.671875 71.558594 203.921875 75.917969 203.9375 C 78.046875 203.96875 80.175781 203.890625 82.296875 203.699219 C 84.140625 203.539062 85.910156 203.09375 87.609375 202.367188 C 88.824219 201.824219 89.9375 201.125 90.953125 200.269531 C 91.386719 199.90625 91.800781 199.519531 92.191406 199.105469 C 92.8125 198.46875 93.488281 198.070312 93.816406 198.304688 C 94.140625 198.539062 93.925781 199.378906 93.230469 200.09375 C 92.800781 200.550781 92.335938 200.972656 91.84375 201.359375 C 90.71875 202.269531 89.488281 203.003906 88.15625 203.566406 C 86.316406 204.304688 84.410156 204.742188 82.429688 204.878906 C 80.261719 205.019531 78.089844 205.039062 75.917969 204.9375 C 71.492188 204.796875 67.183594 204.386719 63.945312 204.023438 C 62.328125 203.839844 60.992188 203.679688 60.046875 203.546875 C 59.546875 203.507812 59.058594 203.417969 58.582031 203.265625 Z M 58.582031 203.265625 " fill-opacity="1" fill-rule="nonzero"/><path fill="#1995ed" d="M 22.828125 226.332031 L 21.878906 225.429688 C 22.144531 224.738281 22.445312 224.0625 22.785156 223.40625 L 23.015625 223.617188 C 23.523438 224.15625 24.105469 224.625 24.621094 225.140625 C 25.742188 226.113281 26.835938 227.070312 28.058594 227.929688 C 30.488281 229.730469 33.097656 231.222656 35.878906 232.40625 C 38.71875 233.609375 41.648438 234.539062 44.660156 235.203125 C 45.988281 235.484375 47.324219 235.753906 48.671875 235.976562 C 50.390625 236.261719 52.132812 236.460938 53.882812 236.59375 C 55.414062 236.710938 56.957031 236.742188 58.5 236.765625 L 62.925781 236.828125 C 66.023438 236.875 69.136719 236.769531 72.242188 236.617188 C 75.347656 236.460938 78.386719 236.210938 81.449219 235.878906 C 84.511719 235.550781 87.75 235.246094 90.894531 234.902344 L 95.621094 234.320312 C 97.023438 234.113281 98.417969 233.894531 99.820312 233.730469 L 100.171875 233.695312 C 101.648438 233.539062 103.125 233.371094 104.644531 233.246094 C 106.164062 233.121094 107.714844 232.964844 109.242188 232.773438 C 110.769531 232.582031 112.332031 232.449219 113.875 232.257812 L 118.359375 231.742188 C 119.921875 231.546875 121.488281 231.335938 123.050781 231.109375 C 124.585938 230.90625 126.121094 230.632812 127.660156 230.449219 L 132.324219 229.882812 C 133.945312 229.675781 135.578125 229.484375 137.199219 229.25 C 138.675781 229.042969 140.152344 228.867188 141.625 228.6875 C 143.101562 228.511719 144.636719 228.320312 146.15625 228.167969 C 147.109375 228.070312 148.050781 227.945312 149.011719 227.820312 C 150.222656 227.652344 151.4375 227.460938 152.648438 227.246094 C 153.859375 227.03125 155.082031 226.769531 156.300781 226.511719 C 157.519531 226.253906 158.601562 225.953125 159.738281 225.605469 L 160.734375 225.3125 C 161.023438 225.226562 161.316406 225.152344 161.613281 225.097656 L 162.070312 225.023438 C 162.222656 224.996094 162.378906 224.984375 162.535156 224.980469 C 162.691406 224.96875 162.847656 224.96875 163.007812 224.980469 C 163.285156 224.957031 163.5625 224.957031 163.839844 224.980469 C 163.917969 224.992188 163.957031 225.035156 163.964844 225.113281 C 163.964844 225.1875 163.925781 225.234375 163.855469 225.25 L 163.871094 225.25 C 163.617188 225.25 163.375 225.25 163.132812 225.3125 L 162.695312 225.378906 C 162.367188 225.433594 162.042969 225.507812 161.722656 225.597656 L 160.550781 225.957031 C 159.8125 226.207031 159.015625 226.460938 158.234375 226.695312 C 156.757812 227.09375 155.222656 227.429688 153.703125 227.738281 C 152.183594 228.050781 150.695312 228.261719 149.179688 228.476562 C 147.667969 228.6875 146.289062 228.867188 144.835938 229.050781 L 140.292969 229.644531 C 138.734375 229.851562 137.191406 230.09375 135.652344 230.34375 L 126.460938 231.738281 C 124.910156 232 123.359375 232.246094 121.8125 232.472656 C 120.21875 232.699219 118.632812 232.921875 117.03125 233.105469 C 115.429688 233.289062 113.960938 233.519531 112.425781 233.730469 C 110.894531 233.945312 109.359375 234.171875 107.824219 234.414062 C 106.289062 234.660156 104.746094 234.855469 103.207031 235.0625 C 101.664062 235.269531 100.253906 235.417969 98.78125 235.652344 C 97.164062 235.917969 95.546875 236.195312 93.925781 236.386719 C 92.300781 236.578125 90.796875 236.84375 89.226562 237.027344 L 84.601562 237.574219 L 79.96875 238.042969 C 76.898438 238.347656 73.820312 238.589844 70.730469 238.714844 C 69.144531 238.78125 67.558594 238.832031 65.972656 238.839844 C 64.386719 238.847656 62.808594 238.839844 61.222656 238.789062 L 56.441406 238.691406 C 54.964844 238.640625 53.488281 238.566406 51.957031 238.40625 C 50.6875 238.28125 49.417969 238.101562 48.148438 237.898438 C 46.222656 237.582031 44.304688 237.199219 42.402344 236.71875 C 39.347656 235.945312 36.394531 234.882812 33.550781 233.53125 C 30.925781 232.25 28.453125 230.730469 26.128906 228.96875 C 25.558594 228.550781 25.019531 228.101562 24.460938 227.667969 C 23.898438 227.230469 23.347656 226.820312 22.828125 226.332031 Z M 304.28125 165.242188 C 304.179688 165.234375 304.082031 165.234375 303.980469 165.242188 C 303.882812 165.257812 303.789062 165.277344 303.699219 165.308594 L 303.425781 165.394531 C 303.253906 165.460938 303.085938 165.539062 302.925781 165.632812 L 302.378906 165.949219 C 301.75 166.316406 301.109375 166.683594 300.453125 166.972656 C 299.082031 167.613281 297.679688 168.179688 296.25 168.671875 L 294.550781 169.207031 C 293.660156 169.480469 292.765625 169.777344 291.882812 170.070312 C 290.996094 170.363281 290.148438 170.679688 289.292969 171.019531 L 286.480469 172.117188 C 285.589844 172.46875 284.6875 172.816406 283.800781 173.183594 C 282.917969 173.550781 282.0625 173.957031 281.207031 174.367188 C 280.351562 174.78125 279.457031 175.191406 278.570312 175.582031 L 276.042969 176.703125 C 275.179688 177.097656 274.308594 177.480469 273.453125 177.894531 C 272.597656 178.304688 271.742188 178.6875 270.878906 179.070312 C 270.015625 179.453125 269.210938 179.808594 268.390625 180.242188 L 268.199219 180.34375 C 267.460938 180.75 266.6875 181.191406 265.933594 181.625 L 263.390625 183.054688 L 258.300781 185.902344 C 256.652344 186.816406 254.996094 187.714844 253.304688 188.546875 C 251.617188 189.375 249.875 190.195312 248.140625 190.980469 C 247.316406 191.347656 246.480469 191.71875 245.675781 192.144531 C 244.871094 192.570312 243.996094 193.035156 243.140625 193.453125 C 242.28125 193.875 241.183594 194.375 240.1875 194.824219 L 237.886719 195.875 L 232.722656 198.289062 C 231.742188 198.746094 230.746094 199.171875 229.769531 199.609375 L 227.558594 200.570312 C 226.710938 200.949219 225.859375 201.308594 225.027344 201.765625 C 224.613281 201.96875 224.195312 202.191406 223.789062 202.425781 L 223.507812 202.605469 L 223.132812 202.867188 C 223.050781 202.929688 222.972656 202.996094 222.902344 203.066406 L 222.761719 203.238281 C 222.679688 203.355469 222.617188 203.480469 222.570312 203.621094 C 222.503906 203.792969 222.488281 203.972656 222.527344 204.15625 C 222.554688 204.296875 222.605469 204.425781 222.679688 204.546875 C 222.789062 204.769531 222.964844 204.894531 223.210938 204.921875 C 223.335938 204.925781 223.457031 204.910156 223.574219 204.871094 L 223.75 204.789062 C 223.835938 204.738281 223.921875 204.6875 224.003906 204.628906 C 224.164062 204.515625 224.328125 204.414062 224.496094 204.320312 C 224.871094 204.105469 225.234375 203.90625 225.632812 203.707031 C 226.371094 203.324219 227.109375 202.972656 227.90625 202.597656 C 229.476562 201.859375 231.085938 201.21875 232.679688 200.527344 C 234.398438 199.792969 236.09375 198.996094 237.796875 198.203125 L 240.976562 196.730469 L 243.074219 195.757812 C 243.882812 195.382812 244.6875 194.964844 245.484375 194.542969 C 246.28125 194.125 247.195312 193.652344 248.074219 193.261719 L 250.699219 192.09375 C 251.585938 191.703125 252.457031 191.28125 253.328125 190.878906 C 255.023438 190.070312 256.683594 189.171875 258.328125 188.257812 C 259.972656 187.34375 261.640625 186.402344 263.277344 185.453125 C 264.121094 184.976562 264.945312 184.476562 265.78125 183.980469 L 268.339844 182.398438 C 269.113281 181.929688 269.917969 181.507812 270.722656 181.089844 C 271.527344 180.667969 272.398438 180.191406 273.230469 179.726562 C 274.890625 178.808594 276.558594 177.917969 278.285156 177.136719 C 279.175781 176.722656 280.070312 176.320312 280.953125 175.886719 L 283.535156 174.617188 C 285.242188 173.789062 286.980469 173.035156 288.703125 172.285156 C 289.585938 171.902344 290.457031 171.550781 291.355469 171.179688 C 292.257812 170.8125 293.128906 170.546875 294.011719 170.230469 L 296.558594 169.363281 C 297.4375 169.039062 298.320312 168.714844 299.175781 168.347656 C 300.03125 167.980469 300.902344 167.566406 301.730469 167.117188 C 302.164062 166.875 302.585938 166.617188 303.007812 166.382812 C 303.21875 166.25 303.433594 166.117188 303.648438 166 C 303.828125 165.902344 304.015625 165.816406 304.207031 165.75 L 304.378906 165.691406 L 304.796875 165.316406 C 304.628906 165.28125 304.457031 165.265625 304.28125 165.269531 Z M 304.28125 165.242188 " fill-opacity="1" fill-rule="nonzero"/><path fill="#303b4a" d="M 151.011719 216.332031 L 150.871094 216.265625 C 151.460938 215.75 152.066406 215.25 152.671875 214.792969 C 152.878906 214.84375 153.082031 214.886719 153.277344 214.945312 L 153.941406 215.132812 C 154.871094 215.410156 155.796875 215.710938 156.722656 216.015625 C 158.574219 216.625 160.410156 217.25 162.253906 217.914062 L 167.011719 219.605469 C 169.152344 220.34375 171.285156 221.121094 173.429688 221.816406 C 177.207031 223.101562 181.007812 224.359375 184.800781 225.613281 L 189.824219 227.285156 C 191.96875 228.019531 194.117188 228.695312 196.277344 229.375 C 198.175781 229.96875 200.078125 230.523438 201.988281 231.082031 C 203.898438 231.640625 205.617188 232.222656 207.433594 232.796875 C 211.222656 234.027344 215.039062 235.195312 218.851562 236.34375 C 222.667969 237.492188 226.421875 238.550781 230.230469 239.523438 L 241.980469 242.644531 L 247.882812 244.160156 C 249.644531 244.589844 251.410156 245 253.164062 245.472656 L 253.605469 245.589844 C 255.460938 246.105469 257.296875 246.621094 259.148438 247.164062 C 261 247.707031 262.941406 248.28125 264.84375 248.796875 L 270.574219 250.375 C 272.425781 250.859375 274.265625 251.335938 276.128906 251.773438 C 277.996094 252.207031 280.027344 252.609375 281.980469 252.964844 C 283.933594 253.316406 285.847656 253.566406 287.773438 253.804688 C 289.695312 254.039062 291.667969 254.253906 293.621094 254.363281 C 295.578125 254.472656 297.714844 254.472656 299.753906 254.398438 C 301.613281 254.273438 303.476562 254.132812 305.328125 253.855469 C 307.21875 253.585938 309.089844 253.222656 310.945312 252.765625 C 312.09375 252.449219 313.269531 252.148438 314.394531 251.726562 C 316.140625 251.101562 317.816406 250.332031 319.429688 249.417969 L 319.886719 249.652344 L 320.164062 249.792969 L 319.996094 249.894531 C 318.277344 250.878906 316.484375 251.703125 314.617188 252.367188 C 312.859375 253 311.066406 253.519531 309.238281 253.929688 C 307.34375 254.351562 305.429688 254.671875 303.5 254.894531 C 301.53125 255.148438 299.554688 255.261719 297.597656 255.347656 C 293.667969 255.410156 289.753906 255.191406 285.855469 254.6875 C 283.886719 254.441406 281.917969 254.144531 279.953125 253.796875 C 277.945312 253.421875 275.953125 252.980469 273.960938 252.492188 L 262.4375 249.660156 L 256.648438 248.1875 C 254.808594 247.707031 252.957031 247.207031 251.136719 246.78125 L 245.019531 245.375 L 239.117188 243.949219 C 235.273438 242.992188 231.445312 241.976562 227.617188 241.003906 C 223.789062 240.03125 220.027344 238.949219 216.269531 237.785156 C 214.34375 237.191406 212.414062 236.617188 210.496094 235.984375 L 204.777344 234.121094 C 202.859375 233.496094 200.925781 232.929688 199 232.363281 C 197.195312 231.824219 195.394531 231.269531 193.601562 230.699219 L 189.027344 229.226562 L 182.078125 226.902344 C 178.347656 225.679688 174.640625 224.421875 170.953125 223.125 L 160.703125 219.445312 C 159.042969 218.863281 157.378906 218.324219 155.710938 217.773438 L 153.15625 216.964844 L 151.992188 216.597656 C 151.800781 216.542969 151.601562 216.5 151.410156 216.433594 Z M 314.832031 150.726562 C 316.308594 151.550781 317.78125 152.414062 319.257812 153.28125 C 320.171875 153.824219 321.074219 154.398438 321.964844 154.980469 L 323.714844 156.152344 C 324.394531 156.613281 325.09375 157.050781 325.78125 157.511719 C 326.464844 157.976562 327.253906 158.484375 327.949219 159.03125 C 328.640625 159.574219 329.3125 160.140625 329.984375 160.714844 C 330.65625 161.289062 331.355469 161.832031 331.984375 162.40625 C 333.265625 163.429688 334.21875 164.695312 334.847656 166.207031 C 335.089844 166.988281 335.089844 167.769531 334.847656 168.554688 C 334.582031 169.378906 334.128906 170.082031 333.488281 170.667969 C 332.820312 171.28125 332.082031 171.800781 331.277344 172.21875 C 330.425781 172.664062 329.546875 173.035156 328.632812 173.332031 C 327.828125 173.589844 327.007812 173.78125 326.171875 173.90625 L 323.535156 174.359375 C 321.78125 174.660156 320.011719 174.835938 318.234375 174.882812 L 315.472656 174.882812 C 314.574219 174.882812 313.679688 174.882812 312.78125 174.882812 C 311.003906 174.835938 309.238281 174.695312 307.476562 174.464844 C 306.589844 174.359375 305.707031 174.207031 304.828125 174.039062 C 303.949219 173.867188 303.132812 173.625 302.289062 173.40625 C 301.449219 173.183594 300.6875 172.933594 299.898438 172.667969 C 299.109375 172.402344 298.238281 172.183594 297.40625 171.933594 C 296.574219 171.683594 295.71875 171.519531 294.859375 171.359375 C 294.417969 171.277344 293.960938 171.226562 293.511719 171.167969 C 293.28125 171.167969 293.0625 171.101562 292.832031 171.054688 C 292.628906 171.042969 292.429688 171.011719 292.234375 170.960938 C 292.15625 170.933594 292.078125 170.898438 292.007812 170.859375 C 291.878906 170.792969 291.757812 170.71875 291.644531 170.636719 C 291.609375 170.636719 291.5625 170.636719 291.542969 170.734375 C 291.511719 170.789062 291.511719 170.84375 291.542969 170.902344 C 291.652344 171.03125 291.777344 171.144531 291.917969 171.242188 C 291.988281 171.304688 292.066406 171.359375 292.144531 171.410156 C 292.222656 171.457031 292.300781 171.503906 292.382812 171.542969 L 292.625 171.644531 C 292.785156 171.703125 292.945312 171.75 293.113281 171.777344 L 293.695312 171.878906 C 294.359375 171.976562 295.015625 172.101562 295.671875 172.261719 C 297.03125 172.585938 298.382812 172.960938 299.730469 173.382812 L 301.308594 173.898438 C 302.136719 174.183594 302.984375 174.414062 303.832031 174.632812 C 304.679688 174.855469 305.515625 175.03125 306.371094 175.191406 C 307.226562 175.355469 308.242188 175.496094 309.179688 175.648438 C 310.117188 175.804688 310.988281 175.898438 311.894531 175.980469 C 312.804688 176.0625 313.695312 176.089844 314.601562 176.082031 L 317.355469 176.082031 C 318.234375 176.082031 319.109375 176.082031 319.988281 176.082031 C 320.867188 176.082031 321.796875 176.011719 322.695312 175.945312 L 325.382812 175.707031 C 326.265625 175.613281 327.09375 175.53125 328.007812 175.371094 L 328.230469 175.324219 C 329.117188 175.128906 329.984375 174.859375 330.824219 174.515625 C 331.832031 174.128906 332.78125 173.636719 333.679688 173.042969 C 334.683594 172.402344 335.511719 171.582031 336.160156 170.585938 C 336.84375 169.496094 337.152344 168.308594 337.082031 167.023438 C 336.996094 165.882812 336.640625 164.832031 336.019531 163.871094 C 335.484375 163.039062 334.859375 162.277344 334.144531 161.589844 C 333.484375 160.9375 332.792969 160.320312 332.074219 159.734375 L 330 158.042969 C 329.335938 157.503906 328.65625 156.984375 327.957031 156.503906 L 325.742188 155.03125 L 323.21875 153.355469 C 322.5625 152.921875 321.914062 152.476562 321.234375 152.074219 C 319.722656 151.140625 318.171875 150.261719 316.617188 149.402344 L 313.96875 147.964844 L 312.640625 147.273438 C 311.902344 147.636719 311.210938 148.011719 310.53125 148.453125 L 310.664062 148.511719 C 312.085938 149.171875 313.453125 149.953125 314.832031 150.726562 Z M 314.832031 150.726562 " fill-opacity="1" fill-rule="nonzero"/></svg>