<svg xmlns="http://www.w3.org/2000/svg" xmlns:xlink="http://www.w3.org/1999/xlink" width="500" zoomAndPan="magnify" viewBox="0 0 375 187.499995" height="250" preserveAspectRatio="xMidYMid meet" version="1.0"><defs><clipPath id="20a0c6d123"><path d="M 10.339844 53 L 230 53 L 230 182 L 10.339844 182 Z M 10.339844 53 " clip-rule="nonzero"/></clipPath></defs><path fill="#1995ed" d="M 77.382812 57.601562 C 81.269531 59.574219 85.667969 60.503906 89.9375 61.21875 C 94.203125 61.933594 98.5625 62.304688 102.902344 62.726562 C 104.402344 62.871094 106.609375 63.519531 107.96875 62.640625 C 109.328125 61.757812 109.152344 59.945312 109.128906 58.621094 C 108.980469 54.566406 108.335938 50.59375 107.191406 46.703125 C 106.261719 43.359375 104.808594 39.773438 101.949219 37.574219 C 97.179688 33.847656 90.308594 35.253906 84.996094 36.882812 C 81.902344 37.828125 78.640625 38.863281 76.03125 40.777344 C 75.304688 41.296875 74.648438 41.898438 74.0625 42.578125 C 73.753906 42.914062 73.488281 43.28125 73.269531 43.683594 C 73.148438 44.019531 73.078125 44.363281 73.054688 44.714844 C 72.78125 45.519531 72.449219 46.296875 72.0625 47.050781 C 71.71875 47.96875 71.527344 48.917969 71.496094 49.894531 C 71.457031 53.511719 74.371094 56.078125 77.382812 57.601562 Z M 249.496094 79.671875 C 246.988281 79.808594 244.480469 79.808594 241.972656 79.671875 C 231.703125 79.179688 221.5 77.871094 211.261719 77.042969 C 206.234375 76.636719 201.1875 76.472656 196.167969 75.90625 C 191.671875 75.398438 187.238281 74.5625 183.3125 72.203125 C 181.175781 70.917969 179.125 69.472656 177.046875 68.089844 C 174.964844 66.707031 173.007812 65.371094 171.078125 63.902344 C 167.164062 60.921875 163.5 57.617188 159.789062 54.371094 C 152.332031 47.886719 145.148438 41.101562 138.339844 33.976562 C 135.28125 30.972656 132.589844 27.667969 130.261719 24.070312 C 129.046875 22.050781 127.082031 18.699219 128.425781 16.324219 C 129.394531 14.589844 131.515625 14.605469 133.230469 14.835938 C 135.710938 15.175781 138.1875 15.496094 140.667969 15.796875 C 145.785156 16.410156 150.875 17.171875 155.953125 18.039062 C 160.664062 18.832031 165.296875 19.835938 169.664062 21.820312 C 174.03125 23.957031 178.128906 26.527344 181.953125 29.527344 C 189.953125 35.453125 198.414062 40.648438 206.675781 46.210938 C 214.9375 51.769531 223.066406 57.921875 231.519531 63.402344 C 235.746094 66.144531 240.011719 68.828125 244.039062 71.863281 C 245.984375 73.332031 247.957031 74.769531 249.839844 76.320312 C 250.371094 76.757812 251.347656 77.382812 251.09375 78.203125 C 251.039062 78.378906 250.300781 79.394531 250.140625 78.996094 " fill-opacity="1" fill-rule="evenodd"/><path fill="#303b4a" d="M 100.820312 62.019531 C 100.820312 62.179688 100.789062 62.335938 100.722656 62.496094 L 102.859375 62.703125 C 102.921875 62.417969 102.964844 62.128906 102.996094 61.835938 C 102.996094 61.414062 103.042969 60.996094 103.050781 60.566406 C 103.050781 60 103.050781 59.429688 103.050781 58.859375 C 103.011719 57.84375 102.921875 56.835938 102.78125 55.832031 C 102.71875 55.386719 102.628906 54.949219 102.535156 54.511719 L 102.160156 52.828125 L 101.851562 51.308594 C 101.730469 50.824219 101.566406 50.351562 101.359375 49.894531 C 100.9375 48.921875 100.457031 47.976562 99.914062 47.058594 C 99.363281 46.101562 98.746094 45.195312 98.054688 44.335938 C 97.289062 43.414062 96.40625 42.617188 95.410156 41.953125 C 94.910156 41.617188 94.402344 41.308594 93.867188 41.015625 C 93.402344 40.742188 92.917969 40.515625 92.414062 40.332031 L 92.289062 40.285156 C 91.75 40.125 91.207031 40.015625 90.652344 39.957031 C 90.078125 39.886719 89.515625 39.855469 88.949219 39.816406 C 88.386719 39.777344 87.824219 39.777344 87.257812 39.816406 C 86.726562 39.851562 86.195312 39.914062 85.667969 40.003906 L 84.007812 40.300781 C 83.46875 40.402344 82.9375 40.542969 82.421875 40.726562 C 81.914062 40.925781 81.417969 41.152344 80.933594 41.402344 C 80.425781 41.65625 79.941406 41.929688 79.457031 42.199219 C 79.019531 42.453125 78.601562 42.742188 78.203125 43.054688 C 77.796875 43.382812 77.40625 43.707031 77.027344 44.074219 L 76.328125 44.757812 C 75.726562 45.292969 75.085938 45.773438 74.40625 46.203125 C 74.082031 46.398438 73.746094 46.566406 73.394531 46.703125 L 73.09375 46.828125 C 73.003906 46.863281 72.921875 46.914062 72.847656 46.980469 L 72.746094 47.09375 C 72.707031 47.136719 72.675781 47.183594 72.648438 47.234375 C 72.617188 47.289062 72.589844 47.347656 72.570312 47.410156 C 72.519531 47.523438 72.488281 47.644531 72.472656 47.765625 C 72.472656 47.832031 72.492188 47.890625 72.53125 47.941406 C 72.53125 47.996094 72.601562 48.039062 72.625 48.03125 C 72.660156 47.945312 72.707031 47.867188 72.761719 47.792969 L 72.855469 47.679688 C 72.933594 47.605469 73.027344 47.542969 73.125 47.496094 L 73.492188 47.363281 C 73.734375 47.285156 73.972656 47.195312 74.207031 47.09375 C 74.648438 46.878906 75.070312 46.628906 75.46875 46.34375 C 75.867188 46.066406 76.261719 45.75 76.628906 45.421875 C 76.996094 45.097656 77.34375 44.773438 77.71875 44.476562 C 78.089844 44.183594 78.511719 43.84375 78.925781 43.554688 C 79.355469 43.273438 79.804688 43.027344 80.277344 42.816406 C 81.191406 42.367188 82.144531 42.015625 83.136719 41.761719 C 83.644531 41.640625 84.152344 41.554688 84.675781 41.476562 C 85.199219 41.394531 85.734375 41.292969 86.265625 41.238281 C 87.3125 41.132812 88.351562 41.195312 89.378906 41.425781 C 89.894531 41.539062 90.398438 41.683594 90.90625 41.808594 C 91.390625 41.929688 91.851562 42.101562 92.296875 42.332031 C 92.773438 42.605469 93.234375 42.902344 93.675781 43.230469 C 94.097656 43.53125 94.503906 43.851562 94.894531 44.191406 C 95.632812 44.828125 96.285156 45.542969 96.847656 46.335938 C 97.386719 47.132812 97.839844 47.925781 98.292969 48.71875 C 98.523438 49.132812 98.738281 49.554688 98.953125 49.976562 C 99.171875 50.390625 99.371094 50.816406 99.546875 51.253906 C 99.71875 51.707031 99.84375 52.167969 99.921875 52.644531 C 100 53.089844 100.082031 53.527344 100.175781 53.964844 L 100.414062 55.09375 C 100.527344 55.664062 100.628906 56.234375 100.683594 56.808594 C 100.789062 57.722656 100.859375 58.636719 100.898438 59.523438 C 100.953125 60.359375 100.929688 61.191406 100.820312 62.019531 Z M 215.367188 72.046875 C 213.292969 70.457031 211.238281 68.867188 209.203125 67.277344 L 205.367188 64.332031 L 202.832031 62.394531 C 201.847656 61.597656 200.878906 60.804688 199.917969 60.058594 C 198.957031 59.3125 197.859375 58.367188 196.785156 57.570312 L 193.5625 55.1875 C 192.472656 54.394531 191.410156 53.597656 190.382812 52.804688 C 188.300781 51.214844 186.285156 49.625 184.273438 47.957031 C 182.265625 46.289062 180.183594 44.675781 178.125 43.046875 L 174.949219 40.5625 L 171.644531 38.003906 C 170.625 37.207031 169.5625 36.550781 168.464844 35.875 L 165.066406 33.730469 C 162.777344 32.296875 160.410156 31.015625 157.960938 29.882812 C 156.683594 29.296875 155.390625 28.746094 154.09375 28.191406 C 152.800781 27.636719 151.566406 27.109375 150.273438 26.601562 C 147.710938 25.65625 145.101562 24.859375 142.449219 24.21875 C 141.113281 23.871094 139.753906 23.609375 138.394531 23.371094 C 137.039062 23.132812 135.71875 23.003906 134.375 22.902344 C 133.035156 22.796875 131.816406 22.75 130.546875 22.671875 L 129.425781 22.671875 C 129.292969 22.425781 129.164062 22.179688 129.039062 21.921875 L 130.625 21.972656 L 130.5625 21.972656 L 133.144531 22.042969 C 134.496094 22.121094 135.855469 22.210938 137.195312 22.375 C 138.539062 22.542969 139.851562 22.757812 141.167969 22.996094 C 142.488281 23.234375 144.042969 23.609375 145.464844 23.980469 C 146.886719 24.355469 148.183594 24.703125 149.535156 25.109375 C 150.882812 25.515625 152.15625 26.03125 153.441406 26.554688 C 154.730469 27.078125 156.039062 27.636719 157.328125 28.183594 C 158.613281 28.730469 159.789062 29.257812 160.988281 29.835938 C 162.1875 30.417969 163.46875 31.035156 164.667969 31.6875 L 168.242188 33.632812 C 169.386719 34.277344 170.539062 34.929688 171.628906 35.636719 L 171.890625 35.8125 C 172.929688 36.476562 173.898438 37.226562 174.890625 37.941406 L 178.195312 40.386719 C 180.382812 41.976562 182.535156 43.660156 184.640625 45.351562 C 186.746094 47.042969 188.714844 48.648438 190.796875 50.238281 C 192.878906 51.828125 195.007812 53.414062 197.152344 55.003906 C 198.167969 55.75 199.1875 56.507812 200.164062 57.308594 L 203.222656 59.804688 C 204.390625 60.734375 205.605469 61.636719 206.789062 62.542969 L 209.585938 64.679688 L 215.851562 69.566406 L 219.429688 72.308594 L 222.097656 74.332031 C 223.125 75.128906 224.132812 75.9375 225.125 76.765625 C 225.617188 77.179688 226.101562 77.605469 226.570312 78.042969 L 226.886719 78.363281 L 227.015625 78.503906 L 223.195312 78.132812 C 222.503906 77.542969 221.8125 76.964844 221.105469 76.398438 C 219.230469 74.90625 217.28125 73.5 215.367188 72.046875 Z M 215.367188 72.046875 " fill-opacity="1" fill-rule="nonzero"/><path fill="#dffff7" d="M 138.722656 158.886719 C 138.847656 160.429688 138.894531 162.183594 139.738281 163.527344 C 140.214844 164.234375 140.867188 164.683594 141.691406 164.886719 C 142.804688 165.21875 143.941406 165.488281 145.0625 165.800781 C 147.300781 166.417969 149.558594 166.992188 151.820312 167.53125 C 156.359375 168.605469 160.925781 169.542969 165.535156 170.273438 C 167.835938 170.628906 170.148438 170.875 172.460938 171.1875 C 173.34375 171.3125 174.472656 171.550781 175.320312 171.1875 C 176.109375 170.667969 176.613281 169.949219 176.839844 169.03125 C 177.484375 167.042969 177.925781 165.007812 178.171875 162.933594 C 178.5625 160.546875 178.863281 158.210938 179.132812 155.851562 C 179.40625 153.492188 179.609375 151.238281 179.800781 148.925781 C 179.890625 147.851562 179.945312 146.78125 180 145.707031 C 180.152344 144.734375 180.035156 143.792969 179.652344 142.886719 C 178.855469 141.535156 176.933594 141.296875 175.535156 141.058594 C 173.152344 140.679688 170.769531 140.402344 168.386719 140.195312 C 163.0625 139.734375 157.730469 139.527344 152.394531 139.527344 C 150.074219 139.527344 147.757812 139.59375 145.441406 139.726562 C 143.917969 139.8125 142.019531 139.726562 140.875 140.925781 C 139.730469 142.125 139.578125 143.984375 139.355469 145.523438 C 139.046875 147.710938 138.824219 149.894531 138.691406 152.09375 C 138.535156 154.359375 138.546875 156.625 138.722656 158.886719 Z M 138.722656 158.886719 " fill-opacity="1" fill-rule="evenodd"/><path fill="#0a57a2" d="M 168.925781 160.191406 C 169.179688 162.867188 169.546875 165.648438 170.785156 168.078125 C 171.769531 170.019531 173.492188 171.695312 175.789062 171.679688 C 178.085938 171.664062 179.992188 170.019531 181.230469 168.207031 C 183.980469 164.234375 184.757812 159.046875 184.703125 154.28125 C 184.703125 151.355469 184.425781 148.28125 183.195312 145.597656 C 182.703125 144.363281 181.90625 143.375 180.8125 142.625 C 179.5 141.949219 178.105469 141.65625 176.632812 141.75 C 175.535156 141.707031 174.488281 141.921875 173.5 142.394531 C 172.507812 142.867188 171.683594 143.542969 171.023438 144.421875 C 169.625 146.476562 169.277344 149.1875 168.933594 151.570312 C 168.585938 154.445312 168.582031 157.316406 168.925781 160.191406 Z M 168.925781 160.191406 " fill-opacity="1" fill-rule="evenodd"/><path fill="#303b4a" d="M 168.679688 155.519531 C 168.679688 155.910156 168.679688 156.3125 168.679688 156.703125 C 173.304688 158.847656 177.746094 161.46875 177.984375 161.597656 C 178.023438 161.617188 178.066406 161.632812 178.109375 161.644531 C 176.957031 162.8125 174.289062 165.5625 171.753906 168.367188 C 171.59375 168.546875 171.429688 168.722656 171.269531 168.898438 C 171.464844 169.195312 171.679688 169.472656 171.914062 169.738281 L 172.539062 169.136719 C 174.867188 166.871094 177.226562 164.617188 178.609375 163.304688 C 178.707031 165.164062 178.847656 167.847656 179.015625 170.511719 C 179.410156 170.226562 179.773438 169.90625 180.113281 169.558594 C 180.113281 166.378906 180.070312 163.273438 180.054688 161.78125 C 180.121094 161.613281 180.136719 161.445312 180.105469 161.269531 C 180.960938 161.460938 182.328125 161.738281 183.886719 162.066406 C 183.988281 161.644531 184.082031 161.222656 184.164062 160.792969 L 180.820312 159.9375 C 181.382812 158.9375 182.996094 156.066406 184.671875 153.222656 C 184.671875 152.628906 184.617188 152.03125 184.566406 151.429688 L 183.828125 152.492188 C 181.757812 155.511719 179.800781 158.648438 179.363281 159.363281 C 178.199219 156.851562 176.910156 154.40625 175.496094 152.023438 C 173.367188 148.386719 170.886719 145.0625 170.730469 145.183594 C 170.570312 145.300781 172.699219 148.820312 174.558594 152.546875 C 176.066406 155.496094 177.386719 158.5625 177.902344 159.792969 C 176.3125 158.953125 172.792969 157.171875 169.164062 155.726562 Z M 168.679688 155.519531 " fill-opacity="1" fill-rule="nonzero"/><path fill="#dffff7" d="M 42.800781 44.230469 C 43.097656 50.515625 45.265625 56.601562 48.261719 62.097656 C 51.113281 67.21875 54.757812 71.691406 59.191406 75.527344 C 63.957031 79.566406 69.054688 83.136719 74.484375 86.234375 C 80.046875 89.570312 85.789062 92.710938 91.484375 95.878906 C 103.082031 102.332031 114.777344 108.589844 126.644531 114.542969 C 138.515625 120.492188 150.34375 126.046875 162.46875 131.136719 C 174.589844 136.230469 186.945312 140.886719 199.488281 144.921875 C 212.03125 148.984375 224.753906 152.363281 237.660156 155.058594 C 244.222656 156.410156 250.839844 157.488281 257.441406 158.65625 C 264.042969 159.824219 270.476562 161.144531 277 162.359375 C 290.046875 164.847656 303.207031 166.214844 316.484375 166.460938 C 323.121094 166.636719 329.742188 166.371094 336.34375 165.664062 C 342.183594 164.957031 348.164062 163.613281 353.28125 160.597656 C 355.453125 159.347656 357.347656 157.769531 358.96875 155.859375 C 360.589844 153.949219 361.839844 151.820312 362.71875 149.472656 C 364.609375 144.214844 362.59375 138.265625 359.460938 133.917969 C 356.179688 129.367188 351.199219 126.449219 346.265625 124.003906 C 343.390625 122.582031 340.425781 121.324219 337.632812 119.746094 C 334.921875 118.195312 332.335938 116.460938 329.871094 114.550781 C 325.101562 110.855469 321.019531 106.328125 317.109375 101.726562 C 313.203125 97.125 309.375 92.429688 304.519531 88.855469 C 299.808594 85.433594 294.34375 83.273438 288.78125 81.554688 C 276.308594 77.710938 263.421875 75.445312 250.523438 73.609375 C 237.269531 71.75 223.964844 70.296875 210.664062 68.773438 C 197.367188 67.246094 183.917969 65.992188 170.484375 64.992188 C 157.050781 63.988281 143.632812 62.910156 130.230469 61.605469 C 123.53125 60.957031 116.84375 60.238281 110.167969 59.375 C 103.8125 58.578125 97.457031 57.699219 91.324219 55.855469 C 88.589844 55.109375 86.230469 53.71875 84.246094 51.691406 C 82.039062 49.394531 80.011719 46.925781 77.988281 44.460938 C 73.96875 39.648438 70.367188 34.539062 67.183594 29.136719 C 63.957031 23.734375 61.351562 18.046875 59.367188 12.070312 C 58.945312 10.738281 58.570312 9.164062 57.699219 8.058594 C 56.824219 7.15625 55.765625 6.625 54.519531 6.472656 C 52.941406 6.179688 51.355469 5.980469 49.753906 5.875 C 48.664062 5.78125 46.871094 5.167969 46.25 6.367188 C 45.835938 7.464844 45.570312 8.59375 45.457031 9.761719 C 45.136719 11.347656 44.90625 12.9375 44.660156 14.472656 C 44.191406 17.769531 43.867188 21.074219 43.558594 24.386719 C 42.863281 30.984375 42.613281 37.601562 42.800781 44.230469 Z M 42.800781 44.230469 " fill-opacity="1" fill-rule="evenodd"/><path fill="#303b4a" d="M 310.121094 94.050781 C 310.253906 94.050781 310.46875 94.132812 310.597656 94.050781 C 310.335938 94.210938 309.914062 94.117188 309.621094 94.140625 C 309.023438 94.195312 308.429688 94.347656 307.832031 94.441406 C 306.492188 94.648438 305.140625 94.816406 303.78125 94.941406 C 301.230469 95.195312 298.679688 95.332031 296.121094 95.472656 C 293.4375 95.625 290.75 95.746094 288.066406 95.695312 C 285.382812 95.648438 282.824219 95.523438 280.203125 95.695312 C 278.222656 95.816406 276.03125 96.015625 274.433594 97.285156 C 273.691406 97.96875 273.128906 98.777344 272.75 99.710938 C 272.371094 100.644531 272.207031 101.617188 272.265625 102.625 C 272.265625 105.007812 273.304688 107.191406 274.378906 109.226562 C 275.394531 111.28125 276.695312 113.132812 278.28125 114.789062 C 281.527344 117.964844 286.023438 119.554688 290.355469 120.636719 C 295.332031 121.878906 300.382812 122.558594 305.511719 122.667969 C 310.8125 122.855469 316.078125 122.527344 321.3125 121.683594 C 323.8125 121.273438 326.273438 120.6875 328.695312 119.9375 C 329.835938 119.546875 330.949219 119.085938 332.03125 118.554688 C 332.570312 118.300781 333.621094 117.996094 333.199219 117.234375 C 332.777344 116.472656 331.800781 116.058594 331.21875 115.550781 C 330.273438 114.753906 329.304688 113.914062 328.335938 113.109375 C 326.421875 111.523438 324.5 109.933594 322.777344 108.167969 C 319.199219 104.585938 315.925781 100.71875 312.628906 96.878906 C 311.777344 95.964844 310.941406 95.023438 310.121094 94.050781 Z M 110.828125 78.117188 C 116.515625 76.4375 120.941406 83.9375 118.367188 88.707031 C 118.085938 89.246094 117.71875 89.71875 117.261719 90.125 C 116.804688 90.527344 116.289062 90.839844 115.71875 91.054688 C 115.148438 91.269531 114.558594 91.375 113.949219 91.375 C 113.339844 91.371094 112.75 91.261719 112.179688 91.042969 C 111.582031 90.765625 111.027344 90.421875 110.519531 90 C 110.011719 89.582031 109.570312 89.101562 109.1875 88.566406 C 108.804688 88.027344 108.5 87.449219 108.269531 86.832031 C 108.042969 86.214844 107.894531 85.578125 107.835938 84.925781 C 107.539062 82.382812 108.335938 79.292969 110.828125 78.117188 Z M 130.878906 81.292969 C 131.546875 81.230469 132.207031 81.261719 132.863281 81.390625 C 133.523438 81.515625 134.148438 81.734375 134.742188 82.039062 C 135.335938 82.347656 135.875 82.730469 136.359375 83.195312 C 136.84375 83.65625 137.25 84.175781 137.585938 84.757812 C 137.917969 85.359375 138.164062 85.996094 138.324219 86.667969 C 138.484375 87.335938 138.554688 88.015625 138.53125 88.703125 C 138.511719 89.390625 138.398438 90.066406 138.195312 90.722656 C 137.992188 91.382812 137.707031 92 137.339844 92.582031 C 136.984375 93.128906 136.550781 93.601562 136.039062 94.003906 C 135.53125 94.40625 134.96875 94.714844 134.351562 94.929688 C 133.738281 95.144531 133.109375 95.257812 132.457031 95.261719 C 131.804688 95.269531 131.171875 95.171875 130.554688 94.964844 C 128.085938 94.035156 126.703125 91.445312 126.242188 88.984375 C 125.84375 87.363281 126.03125 85.816406 126.796875 84.335938 C 127.800781 82.84375 129.164062 81.828125 130.878906 81.292969 Z M 148.960938 86.164062 C 150.605469 84.144531 153.917969 84.265625 156.054688 85.367188 C 158.613281 86.671875 159.835938 89.667969 159.742188 92.429688 C 159.648438 95.195312 158.210938 97.992188 155.492188 98.789062 C 154.804688 98.980469 154.105469 99.054688 153.390625 99.003906 C 152.679688 98.953125 151.996094 98.78125 151.34375 98.492188 C 150.691406 98.199219 150.105469 97.808594 149.589844 97.3125 C 149.074219 96.816406 148.660156 96.25 148.34375 95.609375 C 147.929688 94.878906 147.628906 94.101562 147.445312 93.28125 C 147.257812 92.460938 147.191406 91.632812 147.246094 90.792969 C 147.300781 89.957031 147.476562 89.140625 147.765625 88.355469 C 148.058594 87.566406 148.457031 86.835938 148.960938 86.164062 Z M 172.96875 87.277344 C 173.691406 87.246094 174.402344 87.304688 175.109375 87.460938 C 175.8125 87.617188 176.484375 87.863281 177.125 88.195312 C 177.765625 88.53125 178.351562 88.941406 178.882812 89.429688 C 179.414062 89.917969 179.875 90.464844 180.261719 91.074219 C 181.644531 93.328125 182.074219 96.515625 180.613281 98.84375 C 179.078125 101.289062 175.84375 101.863281 173.222656 101.226562 C 172.570312 101.054688 171.957031 100.789062 171.382812 100.4375 C 170.808594 100.082031 170.296875 99.652344 169.851562 99.148438 C 169.402344 98.644531 169.039062 98.085938 168.753906 97.472656 C 168.46875 96.863281 168.28125 96.222656 168.1875 95.554688 C 167.847656 93.761719 168.097656 92.058594 168.933594 90.4375 C 169.898438 88.917969 171.234375 87.863281 172.9375 87.277344 Z M 196.277344 90.078125 C 196.414062 90.292969 197.328125 90.078125 197.535156 90.078125 C 198.546875 90.046875 199.519531 90.226562 200.457031 90.613281 C 202.148438 91.414062 203.496094 92.597656 204.507812 94.171875 C 204.980469 94.898438 205.34375 95.675781 205.59375 96.503906 C 205.84375 97.332031 205.976562 98.179688 205.984375 99.042969 C 205.996094 99.910156 205.886719 100.757812 205.65625 101.59375 C 205.425781 102.429688 205.082031 103.214844 204.628906 103.953125 C 202.992188 106.542969 199.703125 108.21875 196.808594 106.550781 C 194.308594 105.109375 193.242188 101.910156 192.894531 99.207031 C 192.496094 96.164062 192.765625 92.144531 195.667969 90.351562 M 221.367188 94.59375 C 227.445312 94.1875 230.652344 102.441406 228.808594 107.367188 C 228.664062 107.753906 228.480469 108.121094 228.257812 108.46875 C 228.035156 108.816406 227.78125 109.140625 227.496094 109.4375 C 227.207031 109.734375 226.894531 110 226.554688 110.230469 C 226.210938 110.464844 225.851562 110.660156 225.46875 110.820312 C 225.089844 110.976562 224.695312 111.097656 224.289062 111.175781 C 223.886719 111.253906 223.476562 111.292969 223.0625 111.289062 C 222.652344 111.285156 222.242188 111.238281 221.839844 111.148438 C 221.433594 111.0625 221.042969 110.933594 220.667969 110.769531 C 217.539062 109.441406 215.550781 105.921875 215.105469 102.664062 C 214.660156 99.40625 215.902344 95.464844 219.640625 94.839844 M 236.675781 107.183594 C 236.898438 105.253906 237.121094 103.210938 238.121094 101.535156 C 238.605469 100.777344 239.210938 100.136719 239.9375 99.605469 C 240.664062 99.078125 241.460938 98.699219 242.332031 98.46875 C 244.316406 97.796875 246.296875 97.796875 248.28125 98.46875 C 249.9375 99.210938 251.175781 100.390625 252 102.003906 C 253.875 105.324219 254.160156 109.710938 251.570312 112.753906 C 251 113.378906 250.355469 113.914062 249.636719 114.359375 C 248.917969 114.804688 248.148438 115.144531 247.335938 115.375 C 246.519531 115.601562 245.691406 115.71875 244.84375 115.714844 C 243.996094 115.710938 243.167969 115.59375 242.355469 115.359375 C 238.820312 114.269531 236.898438 110.6875 236.660156 107.191406 Z M 236.675781 107.183594 " fill-opacity="1" fill-rule="nonzero"/><g clip-path="url(#20a0c6d123)"><path fill="#1995ed" d="M 229.644531 136.507812 C 229.644531 136.507812 228.730469 134.96875 228.613281 134.800781 C 227.671875 133.507812 226.632812 132.308594 225.488281 131.191406 C 223.070312 128.84375 220.476562 126.707031 217.703125 124.78125 C 212.359375 120.9375 206.65625 117.730469 200.601562 115.152344 C 194.179688 112.5 187.5625 110.527344 180.738281 109.226562 C 177.300781 108.542969 173.84375 107.988281 170.363281 107.566406 C 166.980469 107.136719 163.460938 106.835938 160.101562 107.613281 C 156.921875 108.351562 153.902344 109.902344 150.890625 111.203125 C 147.628906 112.609375 144.378906 114.074219 141.105469 115.464844 C 137.832031 116.851562 134.613281 118.078125 131.421875 119.515625 C 128.226562 120.953125 125.066406 122.550781 121.886719 124.136719 C 115.53125 127.316406 109.082031 130.230469 102.820312 133.503906 C 96.5625 136.777344 90.429688 140.273438 84.089844 143.402344 C 77.75 146.535156 71.378906 149.519531 65.117188 152.808594 C 58.859375 156.097656 52.40625 159.515625 46.050781 162.804688 C 44.460938 163.597656 42.875 164.394531 41.285156 165.1875 C 39.753906 165.875 38.308594 166.714844 36.957031 167.707031 C 36.660156 167.890625 36.386719 168.101562 36.140625 168.347656 C 35.894531 168.59375 35.679688 168.867188 35.496094 169.160156 C 35.3125 169.457031 35.164062 169.769531 35.050781 170.101562 C 34.941406 170.429688 34.871094 170.769531 34.839844 171.117188 C 34.804688 171.464844 34.816406 171.808594 34.863281 172.15625 C 34.910156 172.5 35 172.835938 35.125 173.160156 C 35.253906 173.484375 35.414062 173.789062 35.613281 174.074219 C 35.808594 174.363281 36.039062 174.621094 36.296875 174.855469 C 38.179688 176.96875 41.023438 177.882812 43.644531 178.679688 C 46.988281 179.675781 50.386719 180.410156 53.84375 180.878906 C 60.929688 181.761719 68.039062 182 75.167969 181.59375 C 78.710938 181.441406 82.261719 181.261719 85.789062 180.800781 C 89.242188 180.316406 92.648438 179.605469 96.003906 178.671875 C 102.859375 176.804688 109.511719 174.378906 116.320312 172.265625 C 123.128906 170.152344 130.101562 168.085938 136.972656 165.972656 C 150.75 161.757812 164.453125 157.332031 178.132812 152.835938 C 191.8125 148.335938 205.660156 143.90625 219.445312 139.605469 Z M 10.09375 78.171875 C 10.152344 73.644531 13.765625 70.179688 16.992188 67.476562 C 21.007812 64.132812 25.335938 61.253906 29.972656 58.84375 C 32.492188 57.53125 35.046875 56.253906 37.652344 55.140625 C 40.261719 54.027344 42.90625 52.996094 45.660156 53.488281 C 48.203125 53.941406 50.722656 55.480469 52.8125 56.902344 C 55.007812 58.398438 57.0625 60.0625 58.976562 61.902344 C 62.886719 65.554688 66.25 69.652344 69.074219 74.199219 C 70.566406 76.433594 71.757812 78.816406 72.648438 81.347656 C 72.902344 82.144531 73.171875 83.273438 72.457031 83.953125 C 72.203125 84.160156 71.96875 84.386719 71.757812 84.636719 C 71.542969 84.980469 71.234375 85.1875 70.835938 85.265625 C 68.105469 86.132812 65.5 87.324219 62.8125 88.316406 C 60.097656 89.3125 57.316406 90.054688 54.464844 90.539062 C 48.671875 91.539062 42.847656 91.820312 36.988281 91.382812 C 31.585938 90.933594 26.289062 89.925781 21.097656 88.355469 C 17.277344 87.21875 12.941406 85.558594 10.9375 81.839844 C 10.34375 80.691406 10.0625 79.464844 10.09375 78.171875 Z M 10.09375 78.171875 " fill-opacity="1" fill-rule="evenodd"/></g><path fill="#dffff7" d="M 322.71875 115.160156 C 322.191406 115.09375 321.660156 115.09375 321.132812 115.160156 L 316.90625 115.390625 C 313.410156 115.597656 308.746094 115.867188 304.050781 115.882812 C 301.753906 115.921875 299.464844 115.835938 297.179688 115.628906 C 295.195312 115.457031 293.289062 114.976562 291.460938 114.191406 C 290.152344 113.605469 288.953125 112.851562 287.859375 111.925781 C 287.390625 111.535156 286.945312 111.117188 286.527344 110.671875 C 285.859375 109.980469 285.128906 109.550781 284.777344 109.804688 C 284.429688 110.0625 284.660156 110.964844 285.40625 111.738281 C 285.871094 112.226562 286.367188 112.683594 286.898438 113.101562 C 288.109375 114.085938 289.433594 114.878906 290.871094 115.488281 C 292.851562 116.285156 294.90625 116.753906 297.035156 116.902344 C 299.371094 117.054688 301.710938 117.074219 304.050781 116.964844 C 308.816406 116.8125 313.457031 116.367188 316.945312 115.980469 C 318.683594 115.78125 320.121094 115.605469 321.140625 115.460938 C 321.675781 115.425781 322.203125 115.324219 322.71875 115.160156 Z M 322.71875 115.160156 " fill-opacity="1" fill-rule="nonzero"/><path fill="#1995ed" d="M 361.21875 140.058594 L 362.242188 139.082031 C 361.957031 138.335938 361.632812 137.609375 361.265625 136.898438 L 361.019531 137.128906 C 360.472656 137.707031 359.84375 138.214844 359.289062 138.773438 C 358.078125 139.820312 356.902344 140.855469 355.585938 141.785156 C 352.96875 143.726562 350.164062 145.335938 347.164062 146.613281 C 344.105469 147.910156 340.953125 148.917969 337.710938 149.632812 C 336.28125 149.933594 334.84375 150.226562 333.390625 150.464844 C 331.539062 150.777344 329.664062 150.992188 327.78125 151.132812 C 326.128906 151.261719 324.46875 151.292969 322.808594 151.316406 L 318.039062 151.386719 C 314.703125 151.4375 311.351562 151.324219 308.007812 151.15625 C 304.664062 150.992188 301.390625 150.722656 298.09375 150.363281 C 294.796875 150.007812 291.308594 149.679688 287.921875 149.308594 L 282.832031 148.679688 C 281.320312 148.457031 279.820312 148.21875 278.3125 148.042969 L 277.929688 148.003906 C 276.339844 147.835938 274.753906 147.652344 273.117188 147.519531 C 271.480469 147.382812 269.8125 147.21875 268.167969 147.011719 C 266.523438 146.804688 264.835938 146.660156 263.175781 146.453125 L 258.347656 145.898438 C 256.664062 145.6875 254.980469 145.457031 253.292969 145.214844 C 251.640625 144.992188 249.988281 144.699219 248.328125 144.5 L 243.308594 143.886719 C 241.5625 143.667969 239.804688 143.460938 238.058594 143.207031 C 236.46875 142.984375 234.878906 142.792969 233.289062 142.601562 C 231.703125 142.410156 230.050781 142.203125 228.414062 142.039062 C 227.386719 141.933594 226.371094 141.800781 225.339844 141.664062 C 224.035156 141.480469 222.726562 141.273438 221.421875 141.042969 C 220.117188 140.8125 218.800781 140.527344 217.488281 140.25 C 216.179688 139.972656 215.011719 139.644531 213.789062 139.273438 L 212.714844 138.953125 C 212.402344 138.863281 212.089844 138.785156 211.769531 138.726562 L 211.277344 138.644531 C 211.113281 138.617188 210.945312 138.601562 210.777344 138.597656 C 210.605469 138.585938 210.4375 138.585938 210.269531 138.597656 C 209.96875 138.574219 209.667969 138.574219 209.371094 138.597656 C 209.289062 138.609375 209.242188 138.65625 209.234375 138.742188 C 209.238281 138.820312 209.277344 138.871094 209.355469 138.890625 L 209.339844 138.890625 C 209.609375 138.890625 209.871094 138.890625 210.132812 138.953125 L 210.601562 139.027344 C 210.957031 139.085938 211.304688 139.164062 211.652344 139.265625 L 212.914062 139.652344 C 213.707031 139.925781 214.566406 140.195312 215.40625 140.449219 C 216.996094 140.878906 218.648438 141.242188 220.285156 141.578125 C 221.921875 141.910156 223.527344 142.140625 225.15625 142.371094 C 226.785156 142.601562 228.269531 142.792969 229.835938 142.992188 L 234.730469 143.632812 C 236.40625 143.855469 238.066406 144.117188 239.726562 144.390625 L 249.625 145.890625 C 251.292969 146.175781 252.960938 146.441406 254.628906 146.683594 C 256.34375 146.929688 258.054688 147.167969 259.777344 147.367188 C 261.5 147.566406 263.082031 147.8125 264.734375 148.042969 C 266.386719 148.273438 268.039062 148.519531 269.691406 148.78125 C 271.34375 149.042969 273.003906 149.257812 274.664062 149.480469 C 276.324219 149.703125 277.84375 149.863281 279.429688 150.117188 C 281.171875 150.402344 282.910156 150.703125 284.660156 150.910156 C 286.40625 151.117188 288.027344 151.402344 289.71875 151.601562 L 294.699219 152.191406 L 299.6875 152.699219 C 302.992188 153.023438 306.308594 153.285156 309.636719 153.421875 C 311.34375 153.492188 313.050781 153.550781 314.757812 153.558594 C 316.46875 153.566406 318.167969 153.558594 319.875 153.5 L 325.023438 153.398438 C 326.613281 153.34375 328.203125 153.261719 329.855469 153.089844 C 331.21875 152.953125 332.585938 152.761719 333.953125 152.539062 C 336.027344 152.199219 338.09375 151.785156 340.140625 151.269531 C 343.429688 150.433594 346.609375 149.285156 349.675781 147.828125 C 352.5 146.445312 355.164062 144.804688 357.667969 142.902344 C 358.277344 142.449219 358.859375 141.964844 359.460938 141.496094 C 360.066406 141.027344 360.660156 140.582031 361.21875 140.058594 Z M 58.132812 74.121094 C 58.242188 74.109375 58.351562 74.109375 58.460938 74.121094 C 58.5625 74.132812 58.664062 74.160156 58.761719 74.191406 L 59.054688 74.285156 C 59.242188 74.355469 59.425781 74.441406 59.597656 74.539062 L 60.183594 74.882812 C 60.859375 75.277344 61.550781 75.675781 62.257812 75.984375 C 63.734375 76.679688 65.242188 77.289062 66.785156 77.820312 L 68.613281 78.402344 C 69.574219 78.695312 70.535156 79.011719 71.488281 79.332031 C 72.441406 79.648438 73.355469 79.992188 74.277344 80.355469 L 77.304688 81.539062 C 78.265625 81.921875 79.234375 82.292969 80.1875 82.691406 C 81.140625 83.089844 82.0625 83.527344 82.984375 83.96875 C 83.90625 84.414062 84.867188 84.859375 85.820312 85.28125 L 88.546875 86.488281 C 89.476562 86.917969 90.414062 87.332031 91.332031 87.777344 C 92.253906 88.222656 93.175781 88.632812 94.105469 89.046875 C 95.035156 89.460938 95.902344 89.839844 96.785156 90.308594 L 96.988281 90.421875 C 97.785156 90.859375 98.617188 91.335938 99.429688 91.804688 L 102.167969 93.34375 L 107.652344 96.417969 C 109.421875 97.40625 111.210938 98.375 113.03125 99.273438 C 114.847656 100.167969 116.722656 101.050781 118.589844 101.902344 C 119.480469 102.296875 120.378906 102.695312 121.246094 103.15625 C 122.109375 103.617188 123.054688 104.117188 123.976562 104.570312 C 124.898438 105.023438 126.082031 105.5625 127.15625 106.046875 L 129.632812 107.183594 L 135.195312 109.789062 C 136.25 110.28125 137.324219 110.742188 138.371094 111.210938 L 140.753906 112.253906 C 141.667969 112.660156 142.582031 113.046875 143.480469 113.539062 C 143.925781 113.761719 144.378906 114 144.816406 114.253906 L 145.117188 114.445312 L 145.523438 114.730469 C 145.609375 114.796875 145.691406 114.867188 145.769531 114.945312 L 145.917969 115.128906 C 146.007812 115.257812 146.078125 115.394531 146.125 115.542969 C 146.195312 115.730469 146.214844 115.925781 146.171875 116.121094 C 146.144531 116.273438 146.085938 116.414062 146.007812 116.542969 C 145.890625 116.785156 145.699219 116.917969 145.433594 116.949219 C 145.300781 116.953125 145.171875 116.933594 145.046875 116.894531 L 144.855469 116.804688 C 144.761719 116.75 144.671875 116.695312 144.585938 116.628906 C 144.410156 116.511719 144.234375 116.398438 144.050781 116.296875 C 143.648438 116.066406 143.257812 115.851562 142.828125 115.636719 C 142.035156 115.222656 141.238281 114.84375 140.382812 114.4375 C 138.691406 113.644531 136.957031 112.953125 135.242188 112.207031 C 133.390625 111.410156 131.5625 110.554688 129.730469 109.695312 L 126.304688 108.105469 L 124.046875 107.058594 C 123.175781 106.652344 122.308594 106.199219 121.449219 105.746094 C 120.59375 105.292969 119.609375 104.785156 118.664062 104.363281 L 115.835938 103.101562 C 114.878906 102.679688 113.945312 102.226562 113.007812 101.789062 C 111.179688 100.917969 109.390625 99.945312 107.621094 98.960938 C 105.847656 97.976562 104.054688 96.960938 102.289062 95.933594 C 101.382812 95.417969 100.492188 94.878906 99.597656 94.347656 L 96.839844 92.636719 C 96.003906 92.128906 95.140625 91.675781 94.273438 91.222656 C 93.40625 90.769531 92.46875 90.253906 91.570312 89.753906 C 89.785156 88.761719 87.988281 87.800781 86.128906 86.957031 C 85.167969 86.511719 84.207031 86.074219 83.253906 85.605469 L 80.472656 84.242188 C 78.640625 83.34375 76.765625 82.53125 74.914062 81.722656 C 73.960938 81.308594 73.023438 80.929688 72.054688 80.53125 C 71.082031 80.132812 70.144531 79.847656 69.191406 79.503906 L 66.453125 78.566406 C 65.507812 78.21875 64.554688 77.871094 63.632812 77.472656 C 62.710938 77.074219 61.773438 76.628906 60.882812 76.144531 C 60.414062 75.882812 59.960938 75.605469 59.507812 75.351562 C 59.277344 75.207031 59.046875 75.066406 58.816406 74.9375 C 58.625 74.832031 58.421875 74.742188 58.214844 74.667969 L 58.03125 74.605469 L 57.578125 74.199219 C 57.761719 74.160156 57.949219 74.144531 58.132812 74.152344 Z M 58.132812 74.121094 " fill-opacity="1" fill-rule="nonzero"/><path fill="#303b4a" d="M 223.1875 129.261719 L 223.335938 129.191406 C 222.699219 128.636719 222.050781 128.09375 221.398438 127.601562 C 221.175781 127.65625 220.953125 127.707031 220.746094 127.769531 L 220.03125 127.96875 C 219.03125 128.269531 218.03125 128.59375 217.035156 128.921875 C 215.042969 129.582031 213.066406 130.253906 211.078125 130.972656 L 205.953125 132.796875 C 203.652344 133.59375 201.355469 134.433594 199.042969 135.179688 C 194.976562 136.570312 190.882812 137.929688 186.800781 139.28125 L 181.390625 141.085938 C 179.078125 141.878906 176.765625 142.609375 174.4375 143.339844 C 172.398438 143.984375 170.347656 144.578125 168.289062 145.183594 C 166.234375 145.789062 164.382812 146.414062 162.425781 147.035156 C 158.34375 148.363281 154.238281 149.625 150.128906 150.863281 C 146.023438 152.101562 141.980469 153.246094 137.878906 154.296875 L 125.222656 157.664062 L 118.867188 159.300781 C 116.96875 159.761719 115.070312 160.207031 113.179688 160.714844 L 112.703125 160.84375 C 110.710938 161.398438 108.730469 161.953125 106.738281 162.542969 C 104.742188 163.128906 102.65625 163.75 100.605469 164.304688 L 94.433594 166.007812 C 92.4375 166.53125 90.460938 167.046875 88.449219 167.515625 C 86.441406 167.984375 84.253906 168.421875 82.148438 168.804688 C 80.046875 169.183594 77.988281 169.453125 75.914062 169.707031 C 73.839844 169.960938 71.71875 170.191406 69.613281 170.3125 C 67.507812 170.429688 65.203125 170.429688 63.011719 170.351562 C 61.011719 170.21875 59 170.066406 57.007812 169.765625 C 54.972656 169.472656 52.957031 169.082031 50.960938 168.589844 C 49.722656 168.246094 48.457031 167.921875 47.242188 167.46875 C 45.367188 166.792969 43.558594 165.960938 41.824219 164.972656 L 41.332031 165.226562 L 41.03125 165.378906 L 41.214844 165.488281 C 43.066406 166.550781 44.996094 167.441406 47.003906 168.160156 C 48.898438 168.839844 50.832031 169.402344 52.796875 169.84375 C 54.835938 170.300781 56.898438 170.648438 58.976562 170.882812 C 61.097656 171.164062 63.226562 171.28125 65.332031 171.375 C 69.566406 171.445312 73.78125 171.207031 77.980469 170.660156 C 80.097656 170.398438 82.214844 170.078125 84.335938 169.699219 C 86.496094 169.296875 88.640625 168.820312 90.785156 168.292969 L 103.195312 165.234375 L 109.429688 163.648438 C 111.410156 163.128906 113.402344 162.589844 115.367188 162.128906 L 121.953125 160.613281 L 128.308594 159.070312 C 132.445312 158.039062 136.570312 156.941406 140.691406 155.894531 C 144.816406 154.84375 148.867188 153.675781 152.910156 152.421875 C 154.984375 151.777344 157.066406 151.15625 159.128906 150.476562 L 165.289062 148.464844 C 167.351562 147.789062 169.433594 147.175781 171.507812 146.566406 C 173.453125 145.984375 175.390625 145.386719 177.324219 144.769531 L 182.25 143.179688 L 189.730469 140.671875 C 193.746094 139.351562 197.738281 137.992188 201.710938 136.59375 L 212.746094 132.625 C 214.535156 131.996094 216.328125 131.414062 218.125 130.820312 L 220.875 129.945312 L 222.128906 129.546875 C 222.335938 129.492188 222.550781 129.445312 222.757812 129.375 Z M 46.773438 58.453125 C 45.183594 59.34375 43.597656 60.273438 42.007812 61.210938 C 41.023438 61.796875 40.054688 62.417969 39.09375 63.042969 L 37.210938 64.308594 C 36.476562 64.808594 35.722656 65.277344 34.984375 65.777344 C 34.246094 66.277344 33.394531 66.828125 32.648438 67.414062 C 31.902344 68.003906 31.179688 68.613281 30.457031 69.234375 C 29.734375 69.851562 28.980469 70.441406 28.304688 71.0625 C 26.921875 72.160156 25.894531 73.527344 25.222656 75.160156 C 24.960938 76.003906 24.960938 76.851562 25.222656 77.695312 C 25.507812 78.582031 25.996094 79.34375 26.683594 79.972656 C 27.402344 80.640625 28.199219 81.199219 29.066406 81.652344 C 29.980469 82.132812 30.929688 82.53125 31.910156 82.851562 C 32.777344 83.128906 33.664062 83.335938 34.5625 83.46875 L 37.398438 83.960938 C 39.289062 84.285156 41.195312 84.472656 43.113281 84.527344 L 46.082031 84.527344 C 47.050781 84.527344 48.011719 84.527344 48.984375 84.527344 C 50.894531 84.476562 52.796875 84.324219 54.695312 84.074219 C 55.648438 83.960938 56.601562 83.796875 57.546875 83.613281 C 58.492188 83.429688 59.375 83.167969 60.28125 82.929688 C 61.183594 82.691406 62.003906 82.421875 62.855469 82.136719 C 63.703125 81.847656 64.640625 81.609375 65.539062 81.339844 C 66.4375 81.070312 67.359375 80.894531 68.28125 80.722656 C 68.757812 80.632812 69.25 80.578125 69.734375 80.515625 C 69.980469 80.515625 70.21875 80.441406 70.464844 80.394531 C 70.683594 80.378906 70.894531 80.34375 71.109375 80.292969 C 71.191406 80.261719 71.273438 80.226562 71.355469 80.179688 C 71.488281 80.113281 71.621094 80.03125 71.742188 79.941406 C 71.78125 79.941406 71.832031 79.941406 71.855469 80.046875 C 71.882812 80.105469 71.882812 80.167969 71.855469 80.230469 C 71.738281 80.371094 71.601562 80.492188 71.449219 80.59375 C 71.371094 80.664062 71.289062 80.722656 71.203125 80.777344 C 71.121094 80.828125 71.035156 80.878906 70.949219 80.917969 L 70.6875 81.03125 C 70.515625 81.09375 70.339844 81.140625 70.164062 81.175781 L 69.535156 81.285156 C 68.820312 81.386719 68.113281 81.523438 67.40625 81.699219 C 65.945312 82.046875 64.488281 82.449219 63.035156 82.90625 L 61.335938 83.460938 C 60.445312 83.773438 59.53125 84.019531 58.621094 84.257812 C 57.707031 84.496094 56.808594 84.6875 55.886719 84.859375 C 54.964844 85.035156 53.867188 85.1875 52.859375 85.351562 C 51.851562 85.519531 50.914062 85.625 49.9375 85.710938 C 48.957031 85.796875 47.996094 85.828125 47.019531 85.820312 L 44.058594 85.820312 C 43.113281 85.820312 42.167969 85.820312 41.222656 85.820312 C 40.277344 85.820312 39.273438 85.742188 38.304688 85.671875 L 35.414062 85.417969 C 34.460938 85.3125 33.570312 85.226562 32.585938 85.050781 L 32.347656 85.003906 C 31.390625 84.792969 30.457031 84.5 29.550781 84.128906 C 28.46875 83.710938 27.445312 83.179688 26.476562 82.539062 C 25.394531 81.847656 24.507812 80.964844 23.808594 79.886719 C 23.070312 78.710938 22.738281 77.429688 22.8125 76.042969 C 22.90625 74.8125 23.289062 73.679688 23.957031 72.640625 C 24.535156 71.742188 25.207031 70.921875 25.976562 70.179688 C 26.6875 69.472656 27.429688 68.804688 28.207031 68.175781 L 30.441406 66.347656 C 31.15625 65.769531 31.886719 65.207031 32.640625 64.6875 L 35.023438 63.101562 L 37.742188 61.289062 C 38.449219 60.820312 39.148438 60.34375 39.878906 59.90625 C 41.507812 58.898438 43.175781 57.953125 44.851562 57.023438 L 47.703125 55.472656 L 49.132812 54.726562 C 49.929688 55.117188 50.675781 55.519531 51.40625 55.996094 L 51.261719 56.0625 C 49.730469 56.777344 48.261719 57.617188 46.773438 58.453125 Z M 46.773438 58.453125 " fill-opacity="1" fill-rule="nonzero"/></svg>