<svg xmlns="http://www.w3.org/2000/svg" xmlns:xlink="http://www.w3.org/1999/xlink" width="500" zoomAndPan="magnify" viewBox="0 0 375 374.999991" height="500" preserveAspectRatio="xMidYMid meet" version="1.0"><path fill="#fffa80" d="M 122.804688 126.136719 C 122.816406 125.359375 122.839844 124.578125 122.871094 123.796875 C 125.003906 70.757812 172.71875 32.589844 220.875 24.082031 C 286.945312 12.410156 374.695312 56.082031 359.328125 133.925781 C 351.097656 175.601562 321.5625 213.382812 279.738281 224.953125 C 268.207031 228.144531 255.179688 230.199219 243.191406 230.199219 C 218.125 230.199219 198.347656 217.167969 175.292969 233.820312 C 168.550781 238.6875 161.574219 255.777344 150.882812 252.011719 C 143.066406 249.261719 141.425781 233.414062 140.898438 226.808594 C 138.175781 192.898438 122.203125 160.28125 122.804688 126.136719 Z M 122.804688 126.136719 " fill-opacity="1" fill-rule="nonzero"/><path fill="#ffffff" d="M 313.925781 126.652344 C 313.925781 127.664062 313.824219 128.667969 313.628906 129.664062 C 313.429688 130.65625 313.136719 131.621094 312.75 132.554688 C 312.363281 133.492188 311.886719 134.378906 311.324219 135.222656 C 310.761719 136.0625 310.125 136.84375 309.40625 137.558594 C 308.691406 138.273438 307.914062 138.914062 307.070312 139.476562 C 306.226562 140.039062 305.339844 140.515625 304.402344 140.902344 C 303.46875 141.289062 302.503906 141.582031 301.511719 141.78125 C 300.515625 141.976562 299.515625 142.078125 298.5 142.078125 C 297.488281 142.078125 296.484375 141.976562 295.492188 141.78125 C 294.5 141.582031 293.535156 141.289062 292.597656 140.902344 C 291.664062 140.515625 290.773438 140.039062 289.933594 139.476562 C 289.089844 138.914062 288.3125 138.273438 287.597656 137.558594 C 286.878906 136.84375 286.242188 136.0625 285.679688 135.222656 C 285.117188 134.378906 284.640625 133.492188 284.253906 132.554688 C 283.867188 131.621094 283.574219 130.65625 283.375 129.664062 C 283.175781 128.667969 283.078125 127.664062 283.078125 126.652344 C 283.078125 125.640625 283.175781 124.636719 283.375 123.644531 C 283.574219 122.652344 283.867188 121.6875 284.253906 120.75 C 284.640625 119.816406 285.117188 118.925781 285.679688 118.085938 C 286.242188 117.242188 286.878906 116.464844 287.597656 115.746094 C 288.3125 115.03125 289.089844 114.390625 289.933594 113.828125 C 290.773438 113.265625 291.664062 112.792969 292.597656 112.40625 C 293.535156 112.015625 294.5 111.722656 295.492188 111.527344 C 296.484375 111.328125 297.488281 111.230469 298.5 111.230469 C 299.515625 111.230469 300.515625 111.328125 301.511719 111.527344 C 302.503906 111.722656 303.46875 112.015625 304.402344 112.40625 C 305.339844 112.792969 306.226562 113.265625 307.070312 113.828125 C 307.914062 114.390625 308.691406 115.03125 309.40625 115.746094 C 310.125 116.464844 310.761719 117.242188 311.324219 118.085938 C 311.886719 118.925781 312.363281 119.816406 312.75 120.75 C 313.136719 121.6875 313.429688 122.652344 313.628906 123.644531 C 313.824219 124.636719 313.925781 125.640625 313.925781 126.652344 Z M 313.925781 126.652344 " fill-opacity="1" fill-rule="nonzero"/><path fill="#ffffff" d="M 259.449219 126.652344 C 259.449219 127.667969 259.347656 128.667969 259.152344 129.664062 C 258.953125 130.65625 258.660156 131.621094 258.273438 132.554688 C 257.886719 133.492188 257.410156 134.378906 256.847656 135.222656 C 256.285156 136.066406 255.644531 136.84375 254.929688 137.558594 C 254.214844 138.277344 253.433594 138.914062 252.59375 139.476562 C 251.75 140.039062 250.863281 140.515625 249.925781 140.902344 C 248.988281 141.292969 248.027344 141.582031 247.03125 141.78125 C 246.039062 141.980469 245.035156 142.078125 244.023438 142.078125 C 243.011719 142.078125 242.007812 141.980469 241.015625 141.78125 C 240.019531 141.582031 239.054688 141.292969 238.121094 140.902344 C 237.183594 140.515625 236.296875 140.039062 235.453125 139.476562 C 234.613281 138.914062 233.832031 138.277344 233.117188 137.558594 C 232.402344 136.84375 231.761719 136.066406 231.199219 135.222656 C 230.636719 134.378906 230.160156 133.492188 229.773438 132.554688 C 229.386719 131.621094 229.09375 130.65625 228.894531 129.664062 C 228.699219 128.667969 228.597656 127.667969 228.597656 126.652344 C 228.597656 125.640625 228.699219 124.636719 228.894531 123.644531 C 229.09375 122.652344 229.386719 121.6875 229.773438 120.75 C 230.160156 119.816406 230.636719 118.925781 231.199219 118.085938 C 231.761719 117.242188 232.402344 116.460938 233.117188 115.746094 C 233.832031 115.03125 234.613281 114.390625 235.453125 113.828125 C 236.296875 113.265625 237.183594 112.789062 238.121094 112.402344 C 239.054688 112.015625 240.019531 111.722656 241.015625 111.527344 C 242.007812 111.328125 243.011719 111.230469 244.023438 111.230469 C 245.035156 111.230469 246.039062 111.328125 247.03125 111.527344 C 248.027344 111.722656 248.988281 112.015625 249.925781 112.402344 C 250.863281 112.789062 251.75 113.265625 252.59375 113.828125 C 253.433594 114.390625 254.214844 115.03125 254.929688 115.746094 C 255.644531 116.460938 256.285156 117.242188 256.847656 118.085938 C 257.410156 118.925781 257.886719 119.816406 258.273438 120.75 C 258.660156 121.6875 258.953125 122.652344 259.152344 123.644531 C 259.347656 124.636719 259.449219 125.640625 259.449219 126.652344 Z M 259.449219 126.652344 " fill-opacity="1" fill-rule="nonzero"/><path fill="#ffffff" d="M 207.855469 126.652344 C 207.855469 127.664062 207.753906 128.667969 207.558594 129.664062 C 207.359375 130.65625 207.066406 131.621094 206.679688 132.554688 C 206.292969 133.492188 205.816406 134.378906 205.253906 135.222656 C 204.691406 136.0625 204.054688 136.84375 203.335938 137.558594 C 202.621094 138.273438 201.839844 138.914062 201 139.476562 C 200.15625 140.039062 199.269531 140.515625 198.332031 140.902344 C 197.398438 141.289062 196.433594 141.582031 195.441406 141.78125 C 194.445312 141.976562 193.445312 142.078125 192.429688 142.078125 C 191.417969 142.078125 190.414062 141.976562 189.421875 141.78125 C 188.429688 141.582031 187.464844 141.289062 186.527344 140.902344 C 185.59375 140.515625 184.703125 140.039062 183.863281 139.476562 C 183.019531 138.914062 182.242188 138.273438 181.527344 137.558594 C 180.808594 136.84375 180.171875 136.0625 179.609375 135.222656 C 179.046875 134.378906 178.570312 133.492188 178.183594 132.554688 C 177.792969 131.621094 177.503906 130.65625 177.304688 129.664062 C 177.105469 128.667969 177.007812 127.664062 177.007812 126.652344 C 177.007812 125.640625 177.105469 124.636719 177.304688 123.644531 C 177.503906 122.652344 177.792969 121.6875 178.183594 120.75 C 178.570312 119.816406 179.046875 118.925781 179.609375 118.085938 C 180.171875 117.242188 180.808594 116.464844 181.527344 115.746094 C 182.242188 115.03125 183.019531 114.390625 183.863281 113.828125 C 184.703125 113.265625 185.59375 112.792969 186.527344 112.40625 C 187.464844 112.015625 188.429688 111.722656 189.421875 111.527344 C 190.414062 111.328125 191.417969 111.230469 192.429688 111.230469 C 193.445312 111.230469 194.445312 111.328125 195.441406 111.527344 C 196.433594 111.722656 197.398438 112.015625 198.332031 112.40625 C 199.269531 112.792969 200.15625 113.265625 201 113.828125 C 201.839844 114.390625 202.621094 115.03125 203.335938 115.746094 C 204.054688 116.464844 204.691406 117.242188 205.253906 118.085938 C 205.816406 118.925781 206.292969 119.816406 206.679688 120.75 C 207.066406 121.6875 207.359375 122.652344 207.558594 123.644531 C 207.753906 124.636719 207.855469 125.640625 207.855469 126.652344 Z M 207.855469 126.652344 " fill-opacity="1" fill-rule="nonzero"/><path fill="#46e9f6" d="M 252.058594 227.828125 C 252.046875 227.050781 252.023438 226.269531 251.992188 225.484375 C 249.863281 172.449219 202.144531 134.277344 153.988281 125.773438 C 87.917969 114.101562 0.167969 157.769531 15.535156 235.617188 C 23.769531 277.292969 53.300781 315.070312 95.125 326.644531 C 106.65625 329.835938 119.6875 331.890625 131.671875 331.890625 C 156.738281 331.890625 176.515625 318.859375 199.570312 335.507812 C 206.3125 340.375 213.289062 357.46875 223.980469 353.703125 C 231.796875 350.949219 233.4375 335.105469 233.964844 328.5 C 236.6875 294.589844 252.660156 261.972656 252.058594 227.828125 Z M 252.058594 227.828125 " fill-opacity="1" fill-rule="nonzero"/><path fill="#ffffff" d="M 91.785156 228.34375 C 91.785156 229.355469 91.6875 230.359375 91.488281 231.351562 C 91.292969 232.347656 91 233.308594 90.609375 234.246094 C 90.222656 235.179688 89.75 236.070312 89.1875 236.914062 C 88.625 237.753906 87.984375 238.535156 87.269531 239.25 C 86.550781 239.964844 85.773438 240.605469 84.929688 241.167969 C 84.089844 241.730469 83.199219 242.207031 82.265625 242.59375 C 81.328125 242.980469 80.363281 243.273438 79.371094 243.46875 C 78.378906 243.667969 77.375 243.765625 76.363281 243.765625 C 75.347656 243.765625 74.347656 243.667969 73.351562 243.46875 C 72.359375 243.273438 71.394531 242.980469 70.460938 242.59375 C 69.523438 242.207031 68.636719 241.730469 67.792969 241.167969 C 66.953125 240.605469 66.171875 239.964844 65.457031 239.25 C 64.742188 238.535156 64.101562 237.753906 63.539062 236.914062 C 62.976562 236.070312 62.5 235.179688 62.113281 234.246094 C 61.726562 233.308594 61.433594 232.347656 61.234375 231.351562 C 61.039062 230.359375 60.9375 229.355469 60.9375 228.34375 C 60.9375 227.332031 61.039062 226.328125 61.234375 225.335938 C 61.433594 224.339844 61.726562 223.378906 62.113281 222.441406 C 62.5 221.507812 62.976562 220.617188 63.539062 219.773438 C 64.101562 218.933594 64.742188 218.15625 65.457031 217.4375 C 66.171875 216.722656 66.953125 216.082031 67.792969 215.519531 C 68.636719 214.957031 69.523438 214.484375 70.460938 214.09375 C 71.394531 213.707031 72.359375 213.414062 73.351562 213.21875 C 74.347656 213.019531 75.347656 212.921875 76.363281 212.921875 C 77.375 212.921875 78.378906 213.019531 79.371094 213.21875 C 80.363281 213.414062 81.328125 213.707031 82.265625 214.09375 C 83.199219 214.484375 84.089844 214.957031 84.929688 215.519531 C 85.773438 216.082031 86.550781 216.722656 87.269531 217.4375 C 87.984375 218.15625 88.625 218.933594 89.1875 219.773438 C 89.75 220.617188 90.222656 221.507812 90.609375 222.441406 C 91 223.378906 91.292969 224.339844 91.488281 225.335938 C 91.6875 226.328125 91.785156 227.332031 91.785156 228.34375 Z M 91.785156 228.34375 " fill-opacity="1" fill-rule="nonzero"/><path fill="#ffffff" d="M 146.265625 228.34375 C 146.265625 229.355469 146.164062 230.359375 145.96875 231.351562 C 145.769531 232.347656 145.476562 233.3125 145.089844 234.246094 C 144.703125 235.183594 144.226562 236.070312 143.664062 236.914062 C 143.101562 237.753906 142.464844 238.535156 141.746094 239.25 C 141.03125 239.964844 140.25 240.605469 139.410156 241.167969 C 138.566406 241.730469 137.679688 242.207031 136.742188 242.59375 C 135.808594 242.980469 134.84375 243.273438 133.847656 243.472656 C 132.855469 243.667969 131.851562 243.769531 130.839844 243.769531 C 129.828125 243.769531 128.824219 243.667969 127.832031 243.472656 C 126.839844 243.273438 125.875 242.980469 124.9375 242.59375 C 124.003906 242.207031 123.113281 241.730469 122.269531 241.167969 C 121.429688 240.605469 120.648438 239.964844 119.933594 239.25 C 119.21875 238.535156 118.578125 237.753906 118.015625 236.914062 C 117.453125 236.070312 116.976562 235.183594 116.589844 234.246094 C 116.203125 233.3125 115.910156 232.347656 115.710938 231.351562 C 115.515625 230.359375 115.417969 229.355469 115.417969 228.34375 C 115.417969 227.332031 115.515625 226.328125 115.710938 225.335938 C 115.910156 224.339844 116.203125 223.378906 116.589844 222.441406 C 116.976562 221.503906 117.453125 220.617188 118.015625 219.773438 C 118.578125 218.933594 119.21875 218.152344 119.933594 217.4375 C 120.648438 216.722656 121.429688 216.082031 122.269531 215.519531 C 123.113281 214.957031 124.003906 214.480469 124.9375 214.09375 C 125.875 213.707031 126.839844 213.414062 127.832031 213.214844 C 128.824219 213.019531 129.828125 212.917969 130.839844 212.917969 C 131.851562 212.917969 132.855469 213.019531 133.847656 213.214844 C 134.84375 213.414062 135.808594 213.707031 136.742188 214.09375 C 137.679688 214.480469 138.566406 214.957031 139.410156 215.519531 C 140.25 216.082031 141.03125 216.722656 141.746094 217.4375 C 142.464844 218.152344 143.101562 218.933594 143.664062 219.773438 C 144.226562 220.617188 144.703125 221.503906 145.089844 222.441406 C 145.476562 223.378906 145.769531 224.339844 145.96875 225.335938 C 146.164062 226.328125 146.265625 227.332031 146.265625 228.34375 Z M 146.265625 228.34375 " fill-opacity="1" fill-rule="nonzero"/><path fill="#ffffff" d="M 197.855469 228.34375 C 197.855469 229.355469 197.757812 230.359375 197.558594 231.351562 C 197.363281 232.347656 197.070312 233.308594 196.679688 234.246094 C 196.292969 235.179688 195.820312 236.070312 195.257812 236.914062 C 194.695312 237.753906 194.054688 238.535156 193.339844 239.25 C 192.621094 239.964844 191.84375 240.605469 191 241.167969 C 190.160156 241.730469 189.269531 242.207031 188.335938 242.59375 C 187.398438 242.980469 186.433594 243.273438 185.441406 243.46875 C 184.449219 243.667969 183.445312 243.765625 182.433594 243.765625 C 181.417969 243.765625 180.417969 243.667969 179.421875 243.46875 C 178.429688 243.273438 177.464844 242.980469 176.53125 242.59375 C 175.59375 242.207031 174.707031 241.730469 173.863281 241.167969 C 173.023438 240.605469 172.242188 239.964844 171.527344 239.25 C 170.8125 238.535156 170.171875 237.753906 169.609375 236.914062 C 169.046875 236.070312 168.570312 235.179688 168.183594 234.246094 C 167.796875 233.308594 167.503906 232.347656 167.304688 231.351562 C 167.109375 230.359375 167.007812 229.355469 167.007812 228.34375 C 167.007812 227.332031 167.109375 226.328125 167.304688 225.335938 C 167.503906 224.339844 167.796875 223.378906 168.183594 222.441406 C 168.570312 221.507812 169.046875 220.617188 169.609375 219.773438 C 170.171875 218.933594 170.8125 218.15625 171.527344 217.4375 C 172.242188 216.722656 173.023438 216.082031 173.863281 215.519531 C 174.707031 214.957031 175.59375 214.484375 176.53125 214.09375 C 177.464844 213.707031 178.429688 213.414062 179.421875 213.21875 C 180.417969 213.019531 181.417969 212.921875 182.433594 212.921875 C 183.445312 212.921875 184.449219 213.019531 185.441406 213.21875 C 186.433594 213.414062 187.398438 213.707031 188.335938 214.09375 C 189.269531 214.484375 190.160156 214.957031 191 215.519531 C 191.84375 216.082031 192.621094 216.722656 193.339844 217.4375 C 194.054688 218.15625 194.695312 218.933594 195.257812 219.773438 C 195.820312 220.617188 196.292969 221.507812 196.679688 222.441406 C 197.070312 223.378906 197.363281 224.339844 197.558594 225.335938 C 197.757812 226.328125 197.855469 227.332031 197.855469 228.34375 Z M 197.855469 228.34375 " fill-opacity="1" fill-rule="nonzero"/></svg>